<?xml version="1.0" standalone="no"?>
<!DOCTYPE svg PUBLIC "-//W3C//DTD SVG 20010904//EN" "http://www.w3.org/TR/2001/REC-SVG-20010904/DTD/svg10.dtd">
<svg xmlns="http://www.w3.org/2000/svg" version="1.0" width="275.000000pt" height="183.000000pt" viewBox="0 0 275.000000 183.000000" preserveAspectRatio="xMidYMid meet">
<metadata>
Created by potrace 1.16, written by Peter Selinger 2001-2019
<meta name="Producer" content="Online-Convert"/></metadata>
<g transform="translate(0.000000,183.000000) scale(0.100000,-0.100000)" fill="#000000" stroke="none">
<path d="M445 1095 c-22 -8 -41 -15 -42 -15 -16 -1 -83 -194 -83 -240 0 -55 66 -81 187 -72 58 4 61 5 71 38 l10 33 -62 -6 c-69 -6 -106 6 -106 36 0 38 33 125 56 148 23 23 32 25 89 21 64 -4 65 -4 75 26 5 16 9 31 7 32 -2 2 -39 6 -82 9 -58 4 -91 1 -120 -10z"/>
<path d="M746 1100 c-48 -15 -65 -40 -96 -137 -36 -113 -37 -134 -6 -170 23 -27 27 -28 118 -27 116 1 139 13 168 91 55 147 61 211 20 233 -27 15 -168 22 -204 10z m131 -61 c8 -8 7 -25 -3 -63 -39 -135 -53 -156 -112 -156 -54 0 -58 20 -27 116 15 47 34 92 42 100 17 17 84 19 100 3z"/>
<path d="M2160 1100 c-47 -11 -65 -37 -96 -133 -33 -105 -34 -155 -4 -179 27 -22 93 -24 110 -3 13 16 118 50 127 42 3 -3 -13 -10 -34 -16 -36 -10 -68 -35 -88 -70 -5 -9 0 -8 18 3 17 12 55 18 123 21 95 5 99 6 106 30 6 24 5 25 -44 25 -44 0 -49 2 -43 18 27 66 56 162 57 190 1 18 -6 40 -14 49 -29 28 -143 40 -218 23z m136 -65 c10 -26 -44 -182 -68 -200 -41 -28 -98 -17 -98 20 0 35 40 158 58 178 20 22 100 24 108 2z"/>
<path d="M1016 978 c-21 -68 -45 -142 -52 -165 l-13 -43 43 0 42 0 39 125 c21 69 41 122 45 118 4 -4 13 -44 20 -88 7 -44 16 -86 20 -93 4 -9 33 21 85 92 44 58 80 104 82 102 1 -1 -15 -56 -37 -121 -22 -66 -40 -123 -40 -127 0 -4 19 -8 43 -8 l42 0 51 163 51 162 -50 3 c-68 4 -96 -10 -137 -68 -19 -27 -38 -50 -41 -50 -4 0 -10 20 -13 45 -10 61 -26 75 -90 75 l-52 0 -38 -122z"/>
<path d="M1441 941 c-28 -88 -51 -162 -51 -165 0 -3 20 -6 45 -6 l44 0 14 48 14 47 81 5 c71 4 84 8 110 33 29 28 52 84 52 126 0 12 -11 33 -25 46 -22 23 -31 25 -129 25 l-104 0 -51 -159z"/>
<path d="M1877 1089 c-16 -9 -85 -110 -190 -276 l-27 -43 45 0 c42 0 48 3 66 35 20 34 23 35 80 35 l59 0 0 -35 c0 -35 0 -35 45 -35 l45 0 0 73 c0 41 3 115 6 165 l7 92 -59 0 c-32 0 -67 -5 -77 -11z"/>
</g>
</svg>
