<?xml version="1.0" encoding="UTF-8"?>
<svg version="1.1" xmlns="http://www.w3.org/2000/svg" width="228" height="82">
<path d="M0 0 C75.24 0 150.48 0 228 0 C228 27.06 228 54.12 228 82 C152.76 82 77.52 82 0 82 C0 54.94 0 27.88 0 0 Z " fill="#FCFEFF" transform="translate(0,0)"/>
<path d="M0 0 C1.25119629 0.00563965 2.50239258 0.0112793 3.79150391 0.01708984 C36.39443028 0.43354306 67.86154366 7.7912172 96.1875 24.3125 C93.48420812 25.66414594 92.37052209 25.00004552 89.48046875 24.203125 C88.00803711 23.81253906 88.00803711 23.81253906 86.50585938 23.4140625 C84.49167878 22.86622548 82.47856066 22.31445903 80.46679688 21.7578125 C60.17650034 16.40252604 40.07560008 15.82802704 19.23413086 15.92138672 C15.41475312 15.93837117 11.5960078 15.92838349 7.77665234 15.91105938 C-25.23845316 15.78434266 -57.75756808 19.12455543 -89.8125 27.3125 C-86.14857309 23.27027089 -82.43352438 20.73909334 -77.5 18.375 C-76.79415771 18.03291504 -76.08831543 17.69083008 -75.36108398 17.33837891 C-63.92760776 11.89798051 -52.48775532 8.05532082 -40.1875 5.0625 C-39.17502197 4.81612793 -38.16254395 4.56975586 -37.11938477 4.31591797 C-24.77933915 1.44170533 -12.67279023 -0.06115368 0 0 Z " fill="#05ABFF" transform="translate(106.8125,1.6875)"/>
<path d="M0 0 C0 1.32 0 2.64 0 4 C-1.2065625 4.02578125 -2.413125 4.0515625 -3.65625 4.078125 C-5.27086738 4.13444886 -6.88544933 4.1917952 -8.5 4.25 C-9.29148438 4.26417969 -10.08296875 4.27835938 -10.8984375 4.29296875 C-16.70431931 4.53091473 -22.71253073 5.71253073 -27 10 C-27.48778507 14.96470428 -27.48778507 14.96470428 -25.375 19.3125 C-20.354651 22.87959008 -15.02388775 23.77998547 -9 23 C-4.27486702 21.24995075 -3.31066352 20.62132704 -1 16 C-6.28 15.67 -11.56 15.34 -17 15 C-17.33 13.68 -17.66 12.36 -18 11 C-15.58887261 8.58887261 -9.36434528 9.81453221 -6.125 9.8125 C-5.10535156 9.80025391 -4.08570313 9.78800781 -3.03515625 9.77539062 C-1.56755859 9.77249023 -1.56755859 9.77249023 -0.0703125 9.76953125 C0.82929199 9.76542236 1.72889648 9.76131348 2.65576172 9.75708008 C5 10 5 10 8 12 C7.67483388 18.28654496 6.84362368 21.56859961 2 26 C-5.35188299 30.24147096 -14.7192505 30.12606872 -23 29 C-28.09145131 27.38729515 -32.48746342 25.09094829 -36 21 C-37.37063254 16.88810238 -37.72829531 13.29123018 -37 9 C-34.40715413 3.9231682 -29.98387939 0.71815602 -24.76171875 -1.34765625 C-16.43912396 -3.31353083 -8.05293668 -2.58770459 0 0 Z " fill="#08ACFF" transform="translate(140,40)"/>
<path d="M0 0 C3.46248917 1.84573571 4.92179287 3.63821909 6.94921875 7.0390625 C7.38671875 10.7890625 7.38671875 10.7890625 6.94921875 14.0390625 C4.94921875 16.0390625 4.94921875 16.0390625 2.79443359 16.26611328 C1.92512207 16.25563965 1.05581055 16.24516602 0.16015625 16.234375 C-0.78085938 16.22792969 -1.721875 16.22148438 -2.69140625 16.21484375 C-3.67625 16.19808594 -4.66109375 16.18132813 -5.67578125 16.1640625 C-6.66835937 16.15503906 -7.6609375 16.14601563 -8.68359375 16.13671875 C-11.13956259 16.11310366 -13.59505293 16.08017049 -16.05078125 16.0390625 C-16.61328125 14.1015625 -16.61328125 14.1015625 -17.05078125 12.0390625 C-15.05461571 10.04289696 -11.23376162 10.62922823 -8.48828125 10.4765625 C-7.77736328 10.43337891 -7.06644531 10.39019531 -6.33398438 10.34570312 C-4.57316213 10.23934473 -2.81199805 10.13867404 -1.05078125 10.0390625 C-3.46766679 7.51231853 -4.88423751 6.1367441 -8.4765625 5.8359375 C-15.79880033 5.58208469 -15.79880033 5.58208469 -22.05078125 9.0390625 C-23.59665001 12.13080002 -23.34437646 14.63335802 -23.05078125 18.0390625 C-20.56415178 21.44666584 -18.03460982 22.82818829 -14.05078125 24.0390625 C-10.77541182 24.27659907 -7.51998023 24.22768977 -4.23828125 24.1640625 C-2.91280273 24.15052734 -2.91280273 24.15052734 -1.56054688 24.13671875 C0.60949234 24.11325887 2.77939122 24.07739115 4.94921875 24.0390625 C5.44421875 26.0190625 5.44421875 26.0190625 5.94921875 28.0390625 C-3.26864657 31.8533516 -13.06758597 32.81916873 -22.61328125 29.4140625 C-27.64013221 27.09906535 -30.56242138 24.01578224 -33.05078125 19.0390625 C-33.58488315 14.170855 -33.55465637 10.17278153 -31.55078125 5.6640625 C-23.40254478 -2.89158579 -10.73843326 -4.12571763 0 0 Z " fill="#09ACFF" transform="translate(197.05078125,38.9609375)"/>
<path d="M0 0 C3.17797147 1.60737069 4.7923 2.97854137 6.36328125 6.1953125 C6.73828125 9.8828125 6.73828125 9.8828125 6.36328125 13.1953125 C4.36328125 15.1953125 4.36328125 15.1953125 2.20849609 15.42236328 C1.33918457 15.41188965 0.46987305 15.40141602 -0.42578125 15.390625 C-1.36679687 15.38417969 -2.3078125 15.37773438 -3.27734375 15.37109375 C-4.2621875 15.35433594 -5.24703125 15.33757813 -6.26171875 15.3203125 C-7.25429688 15.31128906 -8.246875 15.30226563 -9.26953125 15.29296875 C-11.72550009 15.26935366 -14.18099043 15.23642049 -16.63671875 15.1953125 C-17.19921875 13.2578125 -17.19921875 13.2578125 -17.63671875 11.1953125 C-15.64055321 9.19914696 -11.81969912 9.78547823 -9.07421875 9.6328125 C-8.36330078 9.58962891 -7.65238281 9.54644531 -6.91992188 9.50195312 C-5.15909963 9.39559473 -3.39793555 9.29492404 -1.63671875 9.1953125 C-4.1739706 6.41641761 -6.08124499 5.35862386 -9.90625 4.95703125 C-14.24106752 4.83051584 -17.20235986 5.01557779 -21.26171875 6.6953125 C-23.74246832 9.30662784 -24.05928664 9.80457463 -24.26171875 13.1953125 C-24.02365412 15.97963358 -23.66205007 17.15520458 -22.13671875 19.5703125 C-14.30601782 24.66026811 -4.58700994 23.39082857 4.36328125 23.1953125 C4.36328125 24.5153125 4.36328125 25.8353125 4.36328125 27.1953125 C-3.56889696 31.00275804 -12.0147462 31.58032825 -20.5859375 29.46875 C-25.59644631 27.62632075 -29.25611204 25.44833385 -32.63671875 21.1953125 C-34.35117215 16.05195231 -34.41785143 10.53871055 -32.69921875 5.3828125 C-23.71478811 -4.14612909 -11.54500005 -4.67025462 0 0 Z " fill="#07ACFF" transform="translate(50.63671875,39.8046875)"/>
<path d="M0 0 C3.94316582 0.46676192 5.08297224 1.58838212 7.85546875 4.375 C12.9448635 9.26298796 18.38816891 13.34232597 24.16796875 17.375 C24.28914063 16.31539062 24.4103125 15.25578125 24.53515625 14.1640625 C24.70397627 12.77598676 24.87327183 11.38796881 25.04296875 10 C25.16091797 8.95199219 25.16091797 8.95199219 25.28125 7.8828125 C25.94140625 2.6015625 25.94140625 2.6015625 28.16796875 0.375 C30.79296875 0.75 30.79296875 0.75 33.16796875 1.375 C33.22579915 5.83327926 33.2615073 10.2914628 33.29296875 14.75 C33.30972656 16.02101563 33.32648438 17.29203125 33.34375 18.6015625 C33.35341797 20.41914062 33.35341797 20.41914062 33.36328125 22.2734375 C33.3789917 23.95445557 33.3789917 23.95445557 33.39501953 25.66943359 C33.16796875 28.375 33.16796875 28.375 31.16796875 30.375 C28.83984375 30.75390625 28.83984375 30.75390625 26.16796875 30.375 C23.80859375 28.65234375 23.80859375 28.65234375 21.41796875 26.3125 C18.10607614 23.18377634 14.79621314 20.15113501 11.23046875 17.3125 C10.52019531 16.74402344 9.80992188 16.17554688 9.078125 15.58984375 C7.12335783 14.10667392 7.12335783 14.10667392 4.16796875 14.375 C3.17796875 19.325 2.18796875 24.275 1.16796875 29.375 C-0.48203125 29.705 -2.13203125 30.035 -3.83203125 30.375 C-6.53274278 27.67428847 -5.01768407 19.57829036 -5.01953125 15.9375 C-5.03790039 14.03774414 -5.03790039 14.03774414 -5.05664062 12.09960938 C-5.05857422 10.89240234 -5.06050781 9.68519531 -5.0625 8.44140625 C-5.06660889 7.32709229 -5.07071777 6.21277832 -5.07495117 5.06469727 C-4.72865967 1.23043243 -3.77960257 0.50047151 0 0 Z " fill="#09ADFF" transform="translate(65.83203125,38.625)"/>
<path d="M0 0 C0.26422018 13.79816514 0.26422018 13.79816514 -1 20 C-1.66 20.66 -2.32 21.32 -3 22 C-6.53571429 21.46428571 -6.53571429 21.46428571 -8 20 C-8.15620555 18.58672053 -8.25056173 17.1664541 -8.31640625 15.74609375 C-8.35830078 14.89208984 -8.40019531 14.03808594 -8.44335938 13.15820312 C-8.48267578 12.26037109 -8.52199219 11.36253906 -8.5625 10.4375 C-8.60568359 9.53580078 -8.64886719 8.63410156 -8.69335938 7.70507812 C-8.79978142 5.47021515 -8.90179988 3.23523692 -9 1 C-5.94152152 0.45627049 -3.11227195 0 0 0 Z " fill="#0BADFF" transform="translate(160,47)"/>
<path d="M0 0 C2.5625 0.375 2.5625 0.375 4.375 2.25 C5.5625 4.375 5.5625 4.375 5.5625 6.375 C2.08924819 7.5327506 -0.79817448 7.44366652 -4.4375 7.375 C-4.5625 5 -4.5625 5 -4.4375 2.375 C-2.4375 0.375 -2.4375 0.375 0 0 Z " fill="#12B0FF" transform="translate(155.4375,37.625)"/>
</svg>
