<?xml version="1.0" encoding="UTF-8"?>
<svg version="1.1" xmlns="http://www.w3.org/2000/svg" width="164" height="68">
<path d="M0 0 C54.12 0 108.24 0 164 0 C164 22.44 164 44.88 164 68 C109.88 68 55.76 68 0 68 C0 45.56 0 23.12 0 0 Z " fill="#FAFCFC" transform="translate(0,0)"/>
<path d="M0 0 C2.49980148 3.43722704 1.87397732 7.02929843 1.5 11.0625 C1.35884766 12.68091797 1.35884766 12.68091797 1.21484375 14.33203125 C0.42458559 21.04538939 -0.26367302 25.57421973 -5.5 30.0625 C-9.72839584 32.03575139 -15.18373292 31.50125569 -19.5 30.0625 C-21.94386713 26.39669931 -21.59940952 25.05271753 -21.1875 20.75 C-21.08824219 19.64011719 -20.98898438 18.53023437 -20.88671875 17.38671875 C-20.52241793 14.25520361 -20.0493992 11.16637069 -19.5 8.0625 C-18.84 8.0625 -18.18 8.0625 -17.5 8.0625 C-17.5 7.0725 -17.5 6.0825 -17.5 5.0625 C-16.84 5.0625 -16.18 5.0625 -15.5 5.0625 C-15.0978125 3.8559375 -15.0978125 3.8559375 -14.6875 2.625 C-14.295625 1.779375 -13.90375 0.93375 -13.5 0.0625 C-8.90871658 -1.46792781 -4.52131053 -1.69549145 0 0 Z " fill="#5A6771" transform="translate(92.5,17.9375)"/>
<path d="M0 0 C2.08112117 2.05367782 2.90586845 3.35340591 3.328125 6.25390625 C3.30234375 7.01574219 3.2765625 7.77757812 3.25 8.5625 C3.23453125 9.32691406 3.2190625 10.09132813 3.203125 10.87890625 C3 13 3 13 2 16 C-3.28 16 -8.56 16 -14 16 C-14 18.97 -14 21.94 -14 25 C-12.35 25.33 -10.7 25.66 -9 26 C-8.34 24.35 -7.68 22.7 -7 21 C-4.69 21 -2.38 21 0 21 C0 21.99 0 22.98 0 24 C-0.66 24 -1.32 24 -2 24 C-2.226875 24.5775 -2.45375 25.155 -2.6875 25.75 C-4.42027339 28.72046866 -6.07533544 30.18020872 -9 32 C-12.61517076 32.44396834 -14.93919059 32.5559322 -18.19140625 30.8515625 C-20 29 -20 29 -20.4609375 26.21484375 C-20.37141618 22.80082622 -20.24058355 19.40697352 -20 16 C-19.94070312 15.05382813 -19.88140625 14.10765625 -19.8203125 13.1328125 C-19.22985858 8.39477986 -18.15884234 5.53960356 -14.5 2.375 C-10.03750435 -0.49666082 -5.16840252 -1.4137371 0 0 Z " fill="#707B83" transform="translate(26,17)"/>
<path d="M0 0 C4.95 0 9.9 0 15 0 C15.37047774 8.52098794 15.37047774 8.52098794 13.61328125 10.79296875 C12 12 12 12 10 12 C10 9.69 10 7.38 10 5 C7.69 5 5.38 5 3 5 C2.67 9.29 2.34 13.58 2 18 C2.99 18 3.98 18 5 18 C5 17.34 5 16.68 5 16 C8.465 15.505 8.465 15.505 12 15 C12 14.34 12 13.68 12 13 C15.16009533 11.94663489 17.5553136 11.79967112 20.875 11.75 C22.41800781 11.71132813 22.41800781 11.71132813 23.9921875 11.671875 C27.41454214 12.04522278 29.25908705 12.95048851 32 15 C32.8125 17.1875 32.8125 17.1875 33 19 C31.33388095 19.042721 29.66617115 19.04063832 28 19 C27.67 18.67 27.34 18.34 27 18 C20.1704415 17.25606595 15.15654187 18.02925795 9.06640625 21.1015625 C5.94989021 22.45656947 3.33342096 22.39216717 0 22 C-1.35153191 21.37104554 -2.6895763 20.71064192 -4 20 C-3.5636242 12.92770249 -2.21244055 6.73351473 0 0 Z " fill="#33B9D0" transform="translate(125,5)"/>
<path d="M0 0 C0.7734375 -0.01417969 1.546875 -0.02835938 2.34375 -0.04296875 C4.5 0.1875 4.5 0.1875 7.5 2.1875 C6.88479725 6.18631788 4.89731331 8.99108226 2.5 12.1875 C1.84 12.1875 1.18 12.1875 0.5 12.1875 C0.5 12.8475 0.5 13.5075 0.5 14.1875 C-0.2425 14.765 -0.985 15.3425 -1.75 15.9375 C-4.7404905 18.38426496 -6.38824441 20.98345703 -8.5 24.1875 C-9.16 24.1875 -9.82 24.1875 -10.5 24.1875 C-10.726875 25.115625 -10.95375 26.04375 -11.1875 27 C-12.73208795 30.75114217 -14.03028817 31.32091835 -17.5 33.1875 C-17.08955515 26.60958127 -16.63391403 20.44698114 -14.5 14.1875 C-13.18 13.8575 -11.86 13.5275 -10.5 13.1875 C-10.5 15.1675 -10.5 17.1475 -10.5 19.1875 C-9.84 19.1875 -9.18 19.1875 -8.5 19.1875 C-8.17 17.5375 -7.84 15.8875 -7.5 14.1875 C-6.84 14.1875 -6.18 14.1875 -5.5 14.1875 C-5.17 13.1975 -4.84 12.2075 -4.5 11.1875 C-3.84 11.1875 -3.18 11.1875 -2.5 11.1875 C-2.190625 10.56875 -1.88125 9.95 -1.5625 9.3125 C-0.875 7.9375 -0.1875 6.5625 0.5 5.1875 C-0.82 5.1875 -2.14 5.1875 -3.5 5.1875 C-3.5 5.8475 -3.5 6.5075 -3.5 7.1875 C-10.17952442 9.73208073 -17.43957376 10.17228758 -24.5 9.1875 C-27.4296875 7.2890625 -27.4296875 7.2890625 -29.5 5.1875 C-29.5 4.5275 -29.5 3.8675 -29.5 3.1875 C-25.78400809 2.98663557 -24.72791555 3.0355563 -21.5 5.1875 C-18.75481679 5.42937651 -18.75481679 5.42937651 -15.8125 5.3125 C-14.81863281 5.29445313 -13.82476562 5.27640625 -12.80078125 5.2578125 C-12.04152344 5.23460937 -11.28226563 5.21140625 -10.5 5.1875 C-10.5 4.5275 -10.5 3.8675 -10.5 3.1875 C-9.51 3.1875 -8.52 3.1875 -7.5 3.1875 C-7.5 2.5275 -7.5 1.8675 -7.5 1.1875 C-4.71398777 0.25882926 -2.88933911 0.02407783 0 0 Z " fill="#22B3CC" transform="translate(145.5,28.8125)"/>
<path d="M0 0 C2.35776956 2.35776956 2.29544746 2.97593763 2.3125 6.1875 C2.209375 7.445625 2.10625 8.70375 2 10 C0.02 10 -1.96 10 -4 10 C-4.33 8.02 -4.66 6.04 -5 4 C-6.98 4.33 -8.96 4.66 -11 5 C-13.43046191 11.32837252 -14.59060025 17.23784552 -15 24 C-11.41672247 25.00217064 -11.41672247 25.00217064 -8 24 C-7.34444881 21.47266765 -7.34444881 21.47266765 -7 19 C-5.02 19 -3.04 19 -1 19 C-1.39039637 22.38343519 -2.86285606 25.21017253 -5.06640625 27.79296875 C-9.34867507 30.46614262 -15.18864271 29.84674637 -20 29 C-22.76079903 24.85880145 -21.83535426 21.66575916 -21 17 C-18.60494612 5.14227923 -18.60494612 5.14227923 -15 2 C-14.67 1.34 -14.34 0.68 -14 0 C-9.13715844 -1.62094719 -4.80345943 -1.60115314 0 0 Z " fill="#6F7A83" transform="translate(69,18)"/>
<path d="M0 0 C1.65 0 3.3 0 5 0 C5 2.31 5 4.62 5 7 C6.32 7 7.64 7 9 7 C8.67 8.65 8.34 10.3 8 12 C6.35 12 4.7 12 3 12 C2.95101562 12.71285156 2.90203125 13.42570312 2.8515625 14.16015625 C2.32490432 20.9068292 1.13479099 26.59562704 -1 33 C0.32 33 1.64 33 3 33 C3.042721 34.66611905 3.04063832 36.33382885 3 38 C2 39 2 39 -1.375 39.25 C-5 39 -5 39 -6.73046875 37.7890625 C-8.91845786 34.70568093 -8.01836003 31.81139138 -7.59375 28.20703125 C-6.56529591 22.65202596 -4.82471847 17.3383624 -3 12 C-3.99 12 -4.98 12 -6 12 C-6 10.68 -6 9.36 -6 8 C-4.68 7.67 -3.36 7.34 -2 7 C-1.34 4.69 -0.68 2.38 0 0 Z " fill="#7A848C" transform="translate(104,10)"/>
<path d="M0 0 C1.28132813 0.00902344 2.56265625 0.01804687 3.8828125 0.02734375 C4.87023437 0.03894531 5.85765625 0.05054687 6.875 0.0625 C6.875 2.0425 6.875 4.0225 6.875 6.0625 C2.42 6.5575 2.42 6.5575 -2.125 7.0625 C-4.85427213 14.60048969 -6.54967319 22.20821103 -8.125 30.0625 C-10.105 30.0625 -12.085 30.0625 -14.125 30.0625 C-13.465 24.7825 -12.805 19.5025 -12.125 14.0625 C-11.465 14.0625 -10.805 14.0625 -10.125 14.0625 C-10.07601562 13.13566406 -10.02703125 12.20882813 -9.9765625 11.25390625 C-9.90179688 10.05636719 -9.82703125 8.85882813 -9.75 7.625 C-9.68039063 6.43003906 -9.61078125 5.23507813 -9.5390625 4.00390625 C-9.40242188 3.03324219 -9.26578125 2.06257813 -9.125 1.0625 C-6.12186252 -0.43906874 -3.33432478 -0.03031204 0 0 Z " fill="#7D878F" transform="translate(43.125,16.9375)"/>
<path d="M0 0 C3.125 -0.1875 3.125 -0.1875 6 0 C5.58169634 7.22124213 5.04538889 14.04567778 3 21 C0.6739143 21.38063221 -1.66055264 21.71269945 -4 22 C-4.33 21.67 -4.66 21.34 -5 21 C-4.90997602 18.97591245 -4.75358962 16.95455713 -4.5625 14.9375 C-4.46066406 13.83277344 -4.35882813 12.72804688 -4.25390625 11.58984375 C-4.17011719 10.73519531 -4.08632812 9.88054688 -4 9 C-3.34 9 -2.68 9 -2 9 C-2.04125 8.071875 -2.0825 7.14375 -2.125 6.1875 C-2 3 -2 3 0 0 Z " fill="#F1F2F3" transform="translate(82,22)"/>
<path d="M0 0 C0.33 0 0.66 0 1 0 C1 4.62 1 9.24 1 14 C1.66 12.68 2.32 11.36 3 10 C3.66 10 4.32 10 5 10 C4.78977429 19.67038288 4.78977429 19.67038288 1.6875 23.5625 C-2.74463908 27.58234707 -6.10255503 27.21445254 -12 27 C-15 26 -15 26 -17 23 C-17.01171875 20.07421875 -17.01171875 20.07421875 -16.6875 16.6875 C-16.58824219 15.57761719 -16.48898438 14.46773437 -16.38671875 13.32421875 C-16.02241793 10.19270361 -15.5493992 7.10387069 -15 4 C-14.34 4 -13.68 4 -13 4 C-12.67 3.01 -12.34 2.02 -12 1 C-13 6 -13 6 -13.53125 8.21875 C-14.10466666 11.62102219 -14.09473004 14.86388544 -14.0625 18.3125 C-14.05347656 19.56675781 -14.04445313 20.82101563 -14.03515625 22.11328125 C-14.02355469 23.06589844 -14.01195313 24.01851562 -14 25 C-10.7 25 -7.4 25 -4 25 C-4 24.34 -4 23.68 -4 23 C-5.98 23 -7.96 23 -10 23 C-10 22.67 -10 22.34 -10 22 C-6.535 21.505 -6.535 21.505 -3 21 C-3.04125 20.175 -3.0825 19.35 -3.125 18.5 C-3.00278092 15.07786581 -2.40150428 12.31032426 -1.51171875 9.03515625 C-0.760011 6.04553994 -0.38212568 3.05700541 0 0 Z " fill="#919AA0" transform="translate(88,22)"/>
<path d="M0 0 C0.7734375 -0.01417969 1.546875 -0.02835938 2.34375 -0.04296875 C4.5 0.1875 4.5 0.1875 7.5 2.1875 C7.10196439 5.07325819 6.70990931 6.00939513 4.4375 7.9375 C3.4784375 8.55625 3.4784375 8.55625 2.5 9.1875 C2.5 7.2075 2.5 5.2275 2.5 3.1875 C0.19 3.5175 -2.12 3.8475 -4.5 4.1875 C-4.5 4.8475 -4.5 5.5075 -4.5 6.1875 C-5.49 6.1875 -6.48 6.1875 -7.5 6.1875 C-7.5 6.8475 -7.5 7.5075 -7.5 8.1875 C-10.93632747 9.33294249 -13.75431955 9.4272802 -17.375 9.5 C-18.58929688 9.53738281 -19.80359375 9.57476562 -21.0546875 9.61328125 C-25.07302156 9.11668441 -26.6993994 8.05731696 -29.5 5.1875 C-29.5 4.5275 -29.5 3.8675 -29.5 3.1875 C-25.78400809 2.98663557 -24.72791555 3.0355563 -21.5 5.1875 C-18.75481679 5.42937651 -18.75481679 5.42937651 -15.8125 5.3125 C-14.81863281 5.29445313 -13.82476562 5.27640625 -12.80078125 5.2578125 C-12.04152344 5.23460937 -11.28226563 5.21140625 -10.5 5.1875 C-10.5 4.5275 -10.5 3.8675 -10.5 3.1875 C-9.51 3.1875 -8.52 3.1875 -7.5 3.1875 C-7.5 2.5275 -7.5 1.8675 -7.5 1.1875 C-4.71398777 0.25882926 -2.88933911 0.02407783 0 0 Z " fill="#1AAFC9" transform="translate(145.5,28.8125)"/>
<path d="M0 0 C0.33 0 0.66 0 1 0 C0.67 4.29 0.34 8.58 0 13 C0.99 13 1.98 13 3 13 C3 12.34 3 11.68 3 11 C6.465 10.505 6.465 10.505 10 10 C10 9.34 10 8.68 10 8 C13.16009533 6.94663489 15.5553136 6.79967112 18.875 6.75 C20.41800781 6.71132813 20.41800781 6.71132813 21.9921875 6.671875 C25.41454214 7.04522278 27.25908705 7.95048851 30 10 C30.8125 12.1875 30.8125 12.1875 31 14 C29.33388095 14.042721 27.66617115 14.04063832 26 14 C25.67 13.67 25.34 13.34 25 13 C18.2616421 12.39378095 12.98027459 12.81052022 7 16 C7 15.34 7 14.68 7 14 C7.66 14 8.32 14 9 14 C9 13.34 9 12.68 9 12 C8.01 12 7.02 12 6 12 C6 12.66 6 13.32 6 14 C3.36 14 0.72 14 -2 14 C-1.85866501 12.22880197 -1.71176792 10.45804713 -1.5625 8.6875 C-1.48128906 7.70136719 -1.40007812 6.71523438 -1.31640625 5.69921875 C-1 3 -1 3 0 0 Z " fill="#2FB7CF" transform="translate(127,10)"/>
<path d="M0 0 C0.33 0.66 0.66 1.32 1 2 C-1.97 2 -4.94 2 -8 2 C-6.68 2.66 -5.36 3.32 -4 4 C-4 6.64 -4 9.28 -4 12 C-8.29 12 -12.58 12 -17 12 C-17.12375 13.134375 -17.2475 14.26875 -17.375 15.4375 C-17.58125 16.613125 -17.7875 17.78875 -18 19 C-18.66 19.33 -19.32 19.66 -20 20 C-19.77144319 17.76792394 -19.52927049 15.53984758 -19.2578125 13.3125 C-18.95937367 10.94242058 -18.95937367 10.94242058 -18.9375 8.3125 C-15.65181464 0.20780943 -7.74446428 -0.85696941 0 0 Z " fill="#828C93" transform="translate(26,17)"/>
<path d="M0 0 C0.33 0 0.66 0 1 0 C1.33 1.65 1.66 3.3 2 5 C2.66 4.67 3.32 4.34 4 4 C4 4.66 4 5.32 4 6 C6.31 6 8.62 6 11 6 C11.66 4.35 12.32 2.7 13 1 C15.31 1 17.62 1 20 1 C20 1.99 20 2.98 20 4 C19.34 4 18.68 4 18 4 C17.6596875 4.86625 17.6596875 4.86625 17.3125 5.75 C15.57972661 8.72046866 13.92466456 10.18020872 11 12 C7.38461992 12.44399404 4.96101642 12.3696217 1.5625 11.0625 C-0.97050725 7.71893043 -0.30544933 4.04720363 0 0 Z " fill="#727D86" transform="translate(6,37)"/>
<path d="M0 0 C0.99 0.33 1.98 0.66 3 1 C2.67 7.27 2.34 13.54 2 20 C3.98 20 5.96 20 8 20 C8 20.66 8 21.32 8 22 C4.7 22 1.4 22 -2 22 C-4.49499226 17.01001548 -3.41442578 9.60244636 -2.0625 4.375 C-1.40410646 2.9032968 -0.72102599 1.44205197 0 0 Z " fill="#5D6A74" transform="translate(76,25)"/>
<path d="M0 0 C1.32 0 2.64 0 4 0 C2.4722133 3.43752007 0.49818944 6.18953688 -2 9 C-2.66 9 -3.32 9 -4 9 C-4.33 10.65 -4.66 12.3 -5 14 C-5.99 14.33 -6.98 14.66 -8 15 C-7.67 12.69 -7.34 10.38 -7 8 C-8.32 8.33 -9.64 8.66 -11 9 C-10.34 8.01 -9.68 7.02 -9 6 C-10.216875 6.020625 -11.43375 6.04125 -12.6875 6.0625 C-15.91977322 6.06824116 -18.84934741 5.78766315 -22 5 C-21.67 4.34 -21.34 3.68 -21 3 C-19.60587891 3.01740234 -19.60587891 3.01740234 -18.18359375 3.03515625 C-9.04290683 3.11753537 -9.04290683 3.11753537 0 2 C0 1.34 0 0.68 0 0 Z " fill="#DAF2F6" transform="translate(142,34)"/>
<path d="M0 0 C6.75 -0.125 6.75 -0.125 9 1 C10.49084832 5.47254497 10.49084832 9.52745503 9 14 C5.04 14 1.08 14 -3 14 C-3.33 13.34 -3.66 12.68 -4 12 C-1.03 12 1.94 12 5 12 C4.67 9.36 4.34 6.72 4 4 C1.525 3.01 1.525 3.01 -1 2 C-0.67 1.34 -0.34 0.68 0 0 Z " fill="#57646E" transform="translate(18,18)"/>
<path d="M0 0 C1.98 0 3.96 0 6 0 C5.60593605 3.41522088 4.08230753 6.19007917 1.875 8.8046875 C-2.16085904 11.37754764 -7.41013069 10.39529975 -12 10 C-13.35439668 7.29120665 -13.06501451 4.99066732 -13 2 C-12.01 2 -11.02 2 -10 2 C-10 3.32 -10 4.64 -10 6 C-5.34947128 6.26932521 -5.34947128 6.26932521 -1 5 C-0.34444881 2.47266765 -0.34444881 2.47266765 0 0 Z " fill="#67737C" transform="translate(62,37)"/>
<path d="M0 0 C0 1.32 0 2.64 0 4 C-1.27875 4.226875 -2.5575 4.45375 -3.875 4.6875 C-6.06932132 5.16100084 -6.06932132 5.16100084 -8 6 C-9.59688639 8.48313064 -9.59688639 8.48313064 -10 11 C-10.66 11 -11.32 11 -12 11 C-12.33 11.99 -12.66 12.98 -13 14 C-13.66 14 -14.32 14 -15 14 C-14.67 9.71 -14.34 5.42 -14 1 C-12.4325 0.835 -10.865 0.67 -9.25 0.5 C-8.36828125 0.4071875 -7.4865625 0.314375 -6.578125 0.21875 C-4 0 -4 0 0 0 Z " fill="#5A6771" transform="translate(49,18)"/>
<path d="M0 0 C0.99 0 1.98 0 3 0 C2.67 3.63 2.34 7.26 2 11 C3.32 11.33 4.64 11.66 6 12 C6 12.99 6 13.98 6 15 C3.36 15 0.72 15 -2 15 C-2.19392201 9.47322267 -1.7479503 5.24385089 0 0 Z " fill="#57646E" transform="translate(100,32)"/>
<path d="M0 0 C0.33 2.64 0.66 5.28 1 8 C0.01 8.33 -0.98 8.66 -2 9 C-2 9.66 -2 10.32 -2 11 C-4.97 10.505 -4.97 10.505 -8 10 C-7.67 9.34 -7.34 8.68 -7 8 C-6.34 8 -5.68 8 -5 8 C-4.690625 7.38125 -4.38125 6.7625 -4.0625 6.125 C-3.375 4.75 -2.6875 3.375 -2 2 C-3.32 2 -4.64 2 -6 2 C-6 2.66 -6 3.32 -6 4 C-7.32 3.67 -8.64 3.34 -10 3 C-9.01 3 -8.02 3 -7 3 C-7 2.34 -7 1.68 -7 1 C-4 0 -4 0 0 0 Z " fill="#47C0D5" transform="translate(148,32)"/>
<path d="M0 0 C1.4540625 0.0309375 1.4540625 0.0309375 2.9375 0.0625 C2.9375 2.3725 2.9375 4.6825 2.9375 7.0625 C0.2975 7.0625 -2.3425 7.0625 -5.0625 7.0625 C-4.02286585 0.0820993 -4.02286585 0.0820993 0 0 Z " fill="#F2F3F4" transform="translate(19.0625,21.9375)"/>
<path d="M0 0 C1.8871875 0.0309375 1.8871875 0.0309375 3.8125 0.0625 C3.8125 0.3925 3.8125 0.7225 3.8125 1.0625 C0.5125 1.3925 -2.7875 1.7225 -6.1875 2.0625 C-6.1875 2.7225 -6.1875 3.3825 -6.1875 4.0625 C-3.5475 4.0625 -0.9075 4.0625 1.8125 4.0625 C1.8125 4.3925 1.8125 4.7225 1.8125 5.0625 C-0.1675 5.3925 -2.1475 5.7225 -4.1875 6.0625 C-4.8475 8.7025 -5.5075 11.3425 -6.1875 14.0625 C-9.98266358 9.44230085 -9.98266358 9.44230085 -10.1875 6.0625 C-8.9375 3.375 -8.9375 3.375 -7.1875 1.0625 C-4.43671116 0.14557039 -2.82801087 -0.04636083 0 0 Z " fill="#7B858D" transform="translate(86.1875,16.9375)"/>
<path d="M0 0 C0.99 0.33 1.98 0.66 3 1 C3 2.65 3 4.3 3 6 C3.66 6 4.32 6 5 6 C5 6.66 5 7.32 5 8 C6.98 8 8.96 8 11 8 C11 8.66 11 9.32 11 10 C7.7 10 4.4 10 1 10 C-0.60725635 6.78548731 -0.05748185 3.56387464 0 0 Z " fill="#515F69" transform="translate(73,37)"/>
<path d="M0 0 C0.99 0 1.98 0 3 0 C3 1.32 3 2.64 3 4 C3.66 4 4.32 4 5 4 C5 4.66 5 5.32 5 6 C6.98 6 8.96 6 11 6 C11 6.66 11 7.32 11 8 C7.7 8 4.4 8 1 8 C-0.35439668 5.29120665 -0.06501451 2.99066732 0 0 Z " fill="#515F69" transform="translate(49,39)"/>
<path d="M0 0 C3.71599191 -0.20086443 4.77208445 -0.1519437 8 2 C10.28648848 2.24107326 10.28648848 2.24107326 12.6875 2.125 C13.49574219 2.10695312 14.30398437 2.08890625 15.13671875 2.0703125 C15.75160156 2.04710937 16.36648437 2.02390625 17 2 C17 2.66 17 3.32 17 4 C13.7 4 10.4 4 7 4 C7 4.66 7 5.32 7 6 C2.32307692 4.52307692 2.32307692 4.52307692 0.6875 1.875 C0.460625 1.25625 0.23375 0.6375 0 0 Z " fill="#2FB6CE" transform="translate(116,32)"/>
<path d="M0 0 C0.33 0 0.66 0 1 0 C0.67 4.29 0.34 8.58 0 13 C0.99 13 1.98 13 3 13 C3 12.34 3 11.68 3 11 C4.98 10.67 6.96 10.34 9 10 C9 10.66 9 11.32 9 12 C8.01 12 7.02 12 6 12 C6 12.66 6 13.32 6 14 C3.36 14 0.72 14 -2 14 C-1.85866501 12.22880197 -1.71176792 10.45804713 -1.5625 8.6875 C-1.48128906 7.70136719 -1.40007812 6.71523438 -1.31640625 5.69921875 C-1 3 -1 3 0 0 Z " fill="#66CADC" transform="translate(127,10)"/>
<path d="M0 0 C4 0 8 0 12 0 C12.36625971 4.51720311 12.36625971 4.51720311 10.625 6.8125 C9 8 9 8 7 8 C7 5.69 7 3.38 7 1 C4.69 1 2.38 1 0 1 C0 0.67 0 0.34 0 0 Z " fill="#42BDD3" transform="translate(128,9)"/>
<path d="M0 0 C1.8871875 0.0309375 1.8871875 0.0309375 3.8125 0.0625 C3.8125 0.3925 3.8125 0.7225 3.8125 1.0625 C2.2346875 1.1553125 2.2346875 1.1553125 0.625 1.25 C-3.91126302 2.21674458 -5.33314526 3.47416833 -8.1875 7.0625 C-9.506518 9.72783035 -9.506518 9.72783035 -10.1875 12.0625 C-10.8475 12.0625 -11.5075 12.0625 -12.1875 12.0625 C-11.73296538 7.97168838 -11.38830221 5.72983517 -8.1875 3.0625 C-7.8575 2.4025 -7.5275 1.7425 -7.1875 1.0625 C-4.43671116 0.14557039 -2.82801087 -0.04636083 0 0 Z " fill="#868F96" transform="translate(62.1875,16.9375)"/>
<path d="M0 0 C4.62 0 9.24 0 14 0 C13.34 1.32 12.68 2.64 12 4 C11.34 3.67 10.68 3.34 10 3 C8.29636178 2.77377919 6.58671299 2.59111527 4.875 2.4375 C3.96492187 2.35371094 3.05484375 2.26992187 2.1171875 2.18359375 C1.41851562 2.12300781 0.71984375 2.06242188 0 2 C0 1.34 0 0.68 0 0 Z " fill="#02A6C3" transform="translate(126,7)"/>
<path d="M0 0 C0.99 0.33 1.98 0.66 3 1 C1.625 3.5 1.625 3.5 0 6 C-0.66 6 -1.32 6 -2 6 C-2.33 7.32 -2.66 8.64 -3 10 C-3.66 10 -4.32 10 -5 10 C-4.49701212 5.59885603 -2.91227269 3.28804981 0 0 Z " fill="#55626D" transform="translate(57,19)"/>
<path d="M0 0 C0.33 1.32 0.66 2.64 1 4 C1.99 4 2.98 4 4 4 C3.67 5.32 3.34 6.64 3 8 C3 7.01 3 6.02 3 5 C1.35 5 -0.3 5 -2 5 C-2 6.98 -2 8.96 -2 11 C-2.33 11 -2.66 11 -3 11 C-3 8.03 -3 5.06 -3 2 C-2.34 2 -1.68 2 -1 2 C-0.67 1.34 -0.34 0.68 0 0 Z " fill="#C9CDD0" transform="translate(97,18)"/>
<path d="M0 0 C1.32 0 2.64 0 4 0 C4.33 2.31 4.66 4.62 5 7 C4.01 7.33 3.02 7.66 2 8 C2.33 5.69 2.66 3.38 3 1 C1.68 1.33 0.36 1.66 -1 2 C-0.67 1.34 -0.34 0.68 0 0 Z " fill="#94DBE7" transform="translate(132,41)"/>
<path d="M0 0 C2.97 0.99 5.94 1.98 9 3 C9 3.33 9 3.66 9 4 C2.25 4.125 2.25 4.125 0 3 C0 2.01 0 1.02 0 0 Z " fill="#1BB1CB" transform="translate(123,23)"/>
</svg>
