<svg xmlns:xlink="http://www.w3.org/1999/xlink" xmlns="http://www.w3.org/2000/svg" id="Layer_2" viewBox="0 0 399.55 148" width="399.55"  height="148" ><defs><style>.cls-1{fill:#23356e;}</style></defs><g id="Layer_2-2"><g><g><path class="cls-1" d="M161.75,5.14V29.19l-78.82-7.24,.67-1C103.2-1.65,135.26-4.32,161.75,5.14h0Z"/><path class="cls-1" d="M161.75,76.83c-5.12,4.46-10.13,7.8-16.36,9.46-10.24,2.34-21.37,.11-28.05-8.57-5.9-6.68-6.34-17.7-2.45-25.38,4.12-7.34,11.58-12.24,19.48-13.13l-.22-.22-54.55-12.8c-3.56,4.79-6.01,10.13-8.24,15.47-5.23,12.69-4.9,29.94-1.34,42.97h-24.94V1.25H0L.11,94.31v4.13c1.22,.28,2.2,.8,3.04,1.25,1.01,.54,1.8,.96,2.85,.96s1.85-.43,2.86-.96c1.2-.64,2.69-1.44,4.76-1.45,2.09,0,3.62,.8,4.84,1.44,1.03,.54,1.84,.97,2.91,.97,1.01,0,1.79-.43,2.77-.97,1.13-.62,2.52-1.37,4.4-1.43v4.09c-.79,.06-1.45,.38-2.43,.92-1.19,.65-2.67,1.47-4.71,1.48-2.1,.01-3.62-.8-4.84-1.44-1.03-.54-1.84-.97-2.91-.97-1.05,0-1.85,.43-2.86,.97-1.21,.64-2.71,1.44-4.78,1.44s-3.57-.8-4.78-1.45c-.4-.21-.76-.39-1.11-.55v4.84c1.22,.28,2.2,.8,3.04,1.25,1.01,.54,1.8,.97,2.85,.97s1.85-.43,2.86-.97c1.2-.64,2.69-1.44,4.76-1.45,2.09,0,3.62,.8,4.84,1.44,1.03,.55,1.84,.98,2.91,.97,1.01,0,1.79-.43,2.77-.97,1.13-.62,2.52-1.37,4.4-1.43v4.09c-.79,.06-1.45,.38-2.43,.92-1.19,.65-2.67,1.47-4.71,1.48-2.1,.01-3.62-.8-4.84-1.44-1.03-.55-1.84-.98-2.91-.97-1.05,0-1.85,.43-2.86,.97-1.21,.64-2.71,1.45-4.78,1.45s-3.57-.8-4.78-1.45c-.4-.21-.77-.4-1.13-.56l-.1,12.63H82.38s.11-13.14-.11-18.7c18.7,22.71,53.32,24.83,79.48,16.37,.11-24.38,0-39.19,0-45.31Z"/><g><path class="cls-1" d="M161.31,5.16V29.2l-78.82-7.24,.67-1C102.76-1.64,134.82-4.3,161.31,5.16h0Z"/><path class="cls-1" d="M229.67,1.26c14.14,1.78,28.16,8.01,36.29,21.37,6.23,11.13,7.68,28.39,1.89,40.08-9.13-1.89-18.59-4.56-27.83-6.9,5.46-5.9,11.91-11.25,17.92-16.81l-1.67-.56-88.94-8.57V1.26h62.34Z"/><path class="cls-1" d="M388.86,93.44l-47.09-11.69c-2.89-11.91-5.79-23.94-8.79-35.84l-8.02,31.28c-12.91-2.78-26.27-6.12-39.3-9.57l.56-2.67L309.25,1.26h47.76l31.84,92.17h0Z"/><path class="cls-1" d="M207.18,56.59c-4.68,5.45-11.02,9.68-16.03,14.69l58.22,8.57c8.57,9.13,13.69,19.7,20.82,29.39,3.23-8.13,6.56-16.81,9.34-25.38l41.97,5.9c-2.45,12.03-5.34,22.49-8.35,34.73h-83.6l-19.48-38.19v38.19h-42.75V47.35l39.85,9.24h0Z"/><polygon class="cls-1" points="399.55 124.5 352.45 124.5 344.78 92.99 390.75 99.34 399.55 124.5 399.55 124.5"/></g></g><g><path class="cls-1" d="M3.15,134.17v3.55h5.01v2.74H3.15v4.37h5.2v2.74H0v-16.14H8.35v2.74H3.15Z"/><path class="cls-1" d="M10.88,131h2.27l8.5,11.28h.04v-10.85h3.15v16.46h-2.27l-8.5-11.28h-.04v10.96h-3.15v-16.57Z"/><path class="cls-1" d="M30.7,134.17v3.55h5.01v2.74h-5.01v4.37h5.2v2.74h-8.35v-16.14h8.35v2.74h-5.2Z"/><path class="cls-1" d="M41.57,134h.43c1.67,0,2.93,.39,2.93,2.38s-1.22,2.48-2.95,2.48h-.41v-4.86Zm3.21,6.76c2.16-.36,3.3-2.42,3.3-4.48,0-3.45-2.21-4.86-5.39-4.86h-4.26v16.14h3.15v-6.51h.04l3.92,6.51h3.81l-4.56-6.81Z"/><path class="cls-1" d="M64.03,138.99v.41c0,4.56-2.33,8.61-7.34,8.61-4.71,0-7.69-3.98-7.69-8.43s3.06-8.56,7.88-8.56c2.74,0,5.14,1.39,6.38,3.85l-2.78,1.5c-.64-1.46-2.01-2.57-3.68-2.57-3.04,0-4.54,3.11-4.54,5.78s1.52,5.65,4.56,5.65c1.97,0,3.62-1.71,3.68-3.66h-3.43v-2.57h6.96Z"/><path class="cls-1" d="M63.5,131.43h3.66l2.83,5.61,3.08-5.61h3.68l-5.1,8.73v7.41h-3.15v-7.41l-5.01-8.73Z"/></g><path class="cls-1" d="M81.12,139.51c-.02-1.82,1.44-3.28,3.26-3.28s3.28,1.46,3.28,3.28-1.49,3.26-3.28,3.26-3.26-1.44-3.26-3.26Z"/><path class="cls-1" d="M99.52,142.43h.04l3.21-11.22h1.86l3.34,11.22h.04l3.17-11h3.3l-5.46,16.46h-2.31l-3.21-10.55h-.04l-3.04,10.55h-2.31l-5.14-16.46h3.3l3.25,11Z"/><path class="cls-1" d="M121.66,141.6h-3.83l1.78-5.87h.04l2.01,5.87Zm.88,2.57l1.24,3.4h3.36l-6.12-16.57h-2.44l-6.29,16.57h3.32l1.33-3.4h5.61Z"/><path class="cls-1" d="M132.07,147.57h-3.15v-13.4h-3.25v-2.74h9.65v2.74h-3.25v13.4Z"/><path class="cls-1" d="M140.05,134.17v3.55h5.01v2.74h-5.01v4.37h5.2v2.74h-8.35v-16.14h8.35v2.74h-5.2Z"/><path class="cls-1" d="M150.93,134h.43c1.67,0,2.93,.39,2.93,2.38s-1.22,2.48-2.95,2.48h-.41v-4.86Zm3.21,6.76c2.16-.36,3.3-2.42,3.3-4.48,0-3.45-2.21-4.86-5.39-4.86h-4.26v16.14h3.15v-6.51h.04l3.92,6.51h3.81l-4.56-6.81Z"/><path class="cls-1" d="M164.26,139.51c-.02-1.82,1.44-3.28,3.26-3.28s3.28,1.46,3.28,3.28-1.49,3.26-3.28,3.26-3.26-1.44-3.26-3.26Z"/><path class="cls-1" d="M188.36,135.71c-.88-1.07-2.21-1.71-3.55-1.71-3.02,0-4.75,2.78-4.75,5.57s1.8,5.44,4.73,5.44c1.35,0,2.7-.71,3.58-1.71v3.75c-1.18,.56-2.35,.96-3.66,.96-4.54,0-7.9-3.92-7.9-8.37s3.23-8.63,7.96-8.63c1.26,0,2.5,.34,3.6,.94v3.77Z"/><path class="cls-1" d="M198.07,134.11c2.76,0,4.73,2.63,4.73,5.24,0,2.44-2.05,5.55-4.73,5.55s-4.73-3.1-4.73-5.55c0-2.61,1.97-5.24,4.73-5.24Zm0,13.89c4.71,0,7.99-3.9,7.99-8.52s-3.28-8.48-7.99-8.48-7.99,3.96-7.99,8.48,3.28,8.52,7.99,8.52Z"/><path class="cls-1" d="M220.08,137.55h-.04l-3.66,10.23h-1.09l-3.53-10.23h-.04l-1.43,10.02h-3.17l2.72-16.57h2.23l3.98,10.64,3.81-10.64h2.27l2.42,16.57h-3.17l-1.28-10.02Z"/><path class="cls-1" d="M238.41,137.55h-.04l-3.66,10.23h-1.09l-3.53-10.23h-.04l-1.43,10.02h-3.17l2.72-16.57h2.23l3.98,10.64,3.81-10.64h2.27l2.42,16.57h-3.17l-1.28-10.02Z"/><path class="cls-1" d="M244.59,131.43h3.15v9.03c0,1.99,.17,4.8,2.85,4.8s2.85-2.8,2.85-4.8v-9.03h3.15v9.65c0,3.94-1.67,6.92-5.99,6.92s-6-2.98-6-6.92v-9.65Z"/><path class="cls-1" d="M259.24,131h2.27l8.5,11.28h.04v-10.85h3.15v16.46h-2.27l-8.5-11.28h-.04v10.96h-3.15v-16.57Z"/><path class="cls-1" d="M279.06,147.57h-3.15v-16.14h3.15v16.14Z"/><path class="cls-1" d="M287.02,147.57h-3.15v-13.4h-3.25v-2.74h9.65v2.74h-3.26v13.4Z"/><path class="cls-1" d="M290.37,131.43h3.66l2.83,5.61,3.08-5.61h3.68l-5.1,8.73v7.41h-3.15v-7.41l-5.01-8.73Z"/><path class="cls-1" d="M319.07,134.98c-.6-.81-1.37-1.33-2.42-1.33s-1.97,.77-1.97,1.82c0,2.72,6.4,1.58,6.4,7,0,3.23-2.01,5.52-5.31,5.52-2.23,0-3.85-1.28-4.97-3.15l2.03-1.99c.43,1.24,1.56,2.36,2.91,2.36s2.08-1.09,2.08-2.33c0-1.67-1.54-2.14-2.8-2.63-2.08-.86-3.6-1.91-3.6-4.41,0-2.68,1.99-4.84,4.71-4.84,1.43,0,3.42,.71,4.41,1.8l-1.48,2.18Z"/><path class="cls-1" d="M397.47,134.98c-.6-.81-1.37-1.33-2.42-1.33s-1.97,.77-1.97,1.82c0,2.72,6.4,1.58,6.4,7,0,3.23-2.01,5.52-5.31,5.52-2.23,0-3.85-1.28-4.97-3.15l2.03-1.99c.43,1.24,1.56,2.36,2.91,2.36s2.08-1.09,2.08-2.33c0-1.67-1.54-2.14-2.8-2.63-2.08-.86-3.6-1.91-3.6-4.41,0-2.68,1.99-4.84,4.71-4.84,1.43,0,3.42,.71,4.41,1.8l-1.48,2.18Z"/><path class="cls-1" d="M326.31,134.17v3.55h5.01v2.74h-5.01v4.37h5.2v2.74h-8.35v-16.14h8.35v2.74h-5.2Z"/><path class="cls-1" d="M337.18,134h.43c1.67,0,2.93,.39,2.93,2.38s-1.22,2.48-2.95,2.48h-.41v-4.86Zm3.21,6.76c2.16-.36,3.3-2.42,3.3-4.48,0-3.45-2.2-4.86-5.39-4.86h-4.26v16.14h3.15v-6.51h.04l3.92,6.51h3.81l-4.56-6.81Z"/><path class="cls-1" d="M352.21,142.31h.04l3.6-10.88h3.38l-6.27,16.57h-1.84l-6.16-16.57h3.38l3.87,10.88Z"/><path class="cls-1" d="M363.67,147.57h-3.15v-16.14h3.15v16.14Z"/><path class="cls-1" d="M377.17,135.71c-.88-1.07-2.2-1.71-3.55-1.71-3.02,0-4.75,2.78-4.75,5.57s1.8,5.44,4.73,5.44c1.35,0,2.7-.71,3.57-1.71v3.75c-1.18,.56-2.35,.96-3.66,.96-4.54,0-7.9-3.92-7.9-8.37s3.23-8.63,7.96-8.63c1.26,0,2.5,.34,3.6,.94v3.77Z"/><path class="cls-1" d="M382.83,134.17v3.55h5.01v2.74h-5.01v4.37h5.2v2.74h-8.35v-16.14h8.35v2.74h-5.2Z"/></g></g></svg>