<?xml version="1.0" encoding="UTF-8"?>
<svg version="1.1" xmlns="http://www.w3.org/2000/svg" width="40" height="48">
<path d="M0 0 C13.2 0 26.4 0 40 0 C40 15.84 40 31.68 40 48 C26.8 48 13.6 48 0 48 C0 32.16 0 16.32 0 0 Z " fill="#D1CFD0" transform="translate(0,0)"/>
<path d="M0 0 C13.2 0 26.4 0 40 0 C40 15.84 40 31.68 40 48 C26.8 48 13.6 48 0 48 C0 32.16 0 16.32 0 0 Z M6.91796875 10.4609375 C4.67882544 11.9495524 4.67882544 11.9495524 4.125 15.1875 C4.08375 16.115625 4.0425 17.04375 4 18 C3.01 18.66 2.02 19.32 1 20 C0.52055164 22.82297624 0.52055164 22.82297624 0.625 26 C0.61726562 27.0725 0.60953125 28.145 0.6015625 29.25 C0.73304687 30.1575 0.86453125 31.065 1 32 C2.485 32.99 2.485 32.99 4 34 C4.2475 34.94875 4.495 35.8975 4.75 36.875 C6.10891958 40.27229896 7.39428748 41.67182768 10.6796875 43.30078125 C16.48534754 45.05029833 22.87436369 45.15379011 28.58203125 43.046875 C31.89672363 41.15959069 33.6884824 40.03040436 34.8125 36.3125 C34.9053125 35.1678125 34.9053125 35.1678125 35 34 C35.99 33.34 36.98 32.68 38 32 C38.47944836 29.17702376 38.47944836 29.17702376 38.375 26 C38.38273437 24.9275 38.39046875 23.855 38.3984375 22.75 C38.26695313 21.8425 38.13546875 20.935 38 20 C37.01 19.34 36.02 18.68 35 18 C34.7525 17.071875 34.505 16.14375 34.25 15.1875 C32.77960239 11.4379861 31.3113176 10.00705124 28.00390625 7.83203125 C24.48707157 6.37182504 21.68122779 7.27582404 18 8 C17.35804687 7.80792969 16.71609375 7.61585938 16.0546875 7.41796875 C12.44787974 6.68426451 9.9640827 8.6819672 6.91796875 10.4609375 Z " fill="#09090A" transform="translate(0,0)"/>
<path d="M0 0 C-0.99 0.33 -1.98 0.66 -3 1 C-3 2.65 -3 4.3 -3 6 C-0.69 6 1.62 6 4 6 C4 5.34 4 4.68 4 4 C2.35 4.33 0.7 4.66 -1 5 C-1 4.01 -1 3.02 -1 2 C3.75 0.875 3.75 0.875 6 2 C5.6875 4.875 5.6875 4.875 5 8 C4.01 8.66 3.02 9.32 2 10 C2 10.99 2 11.98 2 13 C1.34 13 0.68 13 0 13 C0.99 14.485 0.99 14.485 2 16 C2 17.32 2 18.64 2 20 C0.02 20.33 -1.96 20.66 -4 21 C-4 21.99 -4 22.98 -4 24 C-3.34 24 -2.68 24 -2 24 C-2 25.65 -2 27.3 -2 29 C-1.34 29 -0.68 29 0 29 C-0.33 29.99 -0.66 30.98 -1 32 C-4 33 -4 33 -6.0078125 32.1796875 C-11.81902552 28.59860789 -11.81902552 28.59860789 -12.8125 25.3125 C-12.874375 24.549375 -12.93625 23.78625 -13 23 C-13.99 22.34 -14.98 21.68 -16 21 C-16.3984375 18.25 -16.3984375 18.25 -16.375 15 C-16.38273437 13.9275 -16.39046875 12.855 -16.3984375 11.75 C-16.26695313 10.8425 -16.13546875 9.935 -16 9 C-15.01 8.34 -14.02 7.68 -13 7 C-12.26656572 3.93443402 -12.26656572 3.93443402 -12 1 C-11.05125 0.855625 -10.1025 0.71125 -9.125 0.5625 C-2.25 -0.675 -2.25 -0.675 0 0 Z " fill="#D7D7D8" transform="translate(17,11)"/>
<path d="M0 0 C0.66 0 1.32 0 2 0 C3.20177685 9.74297664 3 19.07156846 3 29 C-10.2 29 -23.4 29 -37 29 C-37 19.76 -37 10.52 -37 1 C-36.67 1 -36.34 1 -36 1 C-35.96261719 1.84304687 -35.92523438 2.68609375 -35.88671875 3.5546875 C-35.82097656 4.65039062 -35.75523438 5.74609375 -35.6875 6.875 C-35.62949219 7.96554688 -35.57148437 9.05609375 -35.51171875 10.1796875 C-35.25841797 11.57574219 -35.25841797 11.57574219 -35 13 C-34.01 13.66 -33.02 14.32 -32 15 C-31.731875 15.969375 -31.46375 16.93875 -31.1875 17.9375 C-30.24584548 21.11784421 -30.24584548 21.11784421 -27.6875 22.875 C-21.08404944 24.88961204 -13.16260115 25.56339113 -6.8125 22.375 C-3.63577569 19.6924328 -2.97048784 17.97017753 -2 14 C-1.34 13.67 -0.68 13.34 0 13 C0 8.71 0 4.42 0 0 Z " fill="#0F0F10" transform="translate(37,19)"/>
<path d="M0 0 C4.82335421 0.28372672 8.60498023 2.6880106 12 6 C12.75 8.6875 12.75 8.6875 13 11 C13.99 11.66 14.98 12.32 16 13 C16.29296875 15.6015625 16.29296875 15.6015625 16.1875 18.625 C16.16042969 19.62789062 16.13335937 20.63078125 16.10546875 21.6640625 C16.07066406 22.43492188 16.03585938 23.20578125 16 24 C14.68 24 13.36 24 12 24 C11.67 23.01 11.34 22.02 11 21 C10.67 21.33 10.34 21.66 10 22 C10.185625 22.928125 10.37125 23.85625 10.5625 24.8125 C11 28 11 28 10.4375 30.1875 C8.36533359 32.80023156 6.0543055 33.75334469 3 35 C2.01 35 1.02 35 0 35 C0 34.34 0 33.68 0 33 C0.99 32.505 0.99 32.505 2 32 C2.28919928 30.00773831 2.57264551 28.01277818 2.75390625 26.0078125 C3.0976951 23.20293204 4.10800579 20.67598263 5 18 C4.34 17.34 3.68 16.68 3 16 C3.3269756 13.38419521 3.82039068 11.35921863 5 9 C4.34 9 3.68 9 3 9 C1.68 6.36 0.36 3.72 -1 1 C-0.67 0.67 -0.34 0.34 0 0 Z " fill="#D9D9D9" transform="translate(22,7)"/>
<path d="M0 0 C-0.3125 2.875 -0.3125 2.875 -1 6 C-1.99 6.66 -2.98 7.32 -4 8 C-4 8.99 -4 9.98 -4 11 C-4.66 11 -5.32 11 -6 11 C-5.01 12.485 -5.01 12.485 -4 14 C-4 15.32 -4 16.64 -4 18 C-4.598125 18.144375 -5.19625 18.28875 -5.8125 18.4375 C-7.56150404 18.8872439 -9.28677023 19.42892341 -11 20 C-11 20.66 -11 21.32 -11 22 C-13.475 21.01 -13.475 21.01 -16 20 C-15.08597342 15.16871667 -13.55342587 10.6602776 -12 6 C-11.34 6 -10.68 6 -10 6 C-10 5.34 -10 4.68 -10 4 C-7.36 4 -4.72 4 -2 4 C-2 3.34 -2 2.68 -2 2 C-3.65 2.33 -5.3 2.66 -7 3 C-7 2.01 -7 1.02 -7 0 C-4.3333581 -1.33332095 -2.83319697 -0.67102033 0 0 Z " fill="#F5BBBC" transform="translate(23,13)"/>
<path d="M0 0 C0.33 0 0.66 0 1 0 C1.33 3.3 1.66 6.6 2 10 C1.01 10.66 0.02 11.32 -1 12 C-1.2475 12.94875 -1.495 13.8975 -1.75 14.875 C-3.11601054 18.29002635 -4.44489115 19.64020947 -7.71484375 21.3203125 C-12.36138688 22.70236123 -17.20778 22.28328394 -22 22 C-21.01 20.68 -20.02 19.36 -19 18 C-19.66 18 -20.32 18 -21 18 C-21 16.35 -21 14.7 -21 13 C-20.34 13 -19.68 13 -19 13 C-18.67 12.01 -18.34 11.02 -18 10 C-16.68 10.33 -15.36 10.66 -14 11 C-14 11.66 -14 12.32 -14 13 C-12.68 13.33 -11.36 13.66 -10 14 C-10.66 15.32 -11.32 16.64 -12 18 C-12.66 18 -13.32 18 -14 18 C-14 18.66 -14 19.32 -14 20 C-11.03 18.68 -8.06 17.36 -5 16 C-4.95875 14.55625 -4.9175 13.1125 -4.875 11.625 C-4.85179688 10.81289063 -4.82859375 10.00078125 -4.8046875 9.1640625 C-4.78629949 6.78657757 -4.78629949 6.78657757 -7 5 C-4.525 5.495 -4.525 5.495 -2 6 C-2 6.99 -2 7.98 -2 9 C-1.34 9 -0.68 9 0 9 C0 6.03 0 3.06 0 0 Z " fill="#BDBDBE" transform="translate(36,22)"/>
<path d="M0 0 C0.66 0 1.32 0 2 0 C2 0.99 2 1.98 2 3 C2.66 3 3.32 3 4 3 C4 4.65 4 6.3 4 8 C4.66 8 5.32 8 6 8 C5.67 8.99 5.34 9.98 5 11 C2 12 2 12 -0.04296875 11.1796875 C-2.17133957 9.88483167 -4.13123774 8.6509578 -6 7 C-6.5 4.1875 -6.5 4.1875 -6 2 C-3 1 -3 1 -0.8125 1.9375 C-0.214375 2.288125 0.38375 2.63875 1 3 C0.67 2.01 0.34 1.02 0 0 Z " fill="#BDBDBD" transform="translate(11,32)"/>
<path d="M0 0 C-0.99 0.33 -1.98 0.66 -3 1 C-3.12375 2.134375 -3.2475 3.26875 -3.375 4.4375 C-3.58125 5.613125 -3.7875 6.78875 -4 8 C-4.99 8.495 -4.99 8.495 -6 9 C-6.65213292 11.02463255 -6.65213292 11.02463255 -7 13 C-7.99 12.67 -8.98 12.34 -10 12 C-9.67 10.35 -9.34 8.7 -9 7 C-9.99 7 -10.98 7 -12 7 C-12 5.02 -12 3.04 -12 1 C-11.05125 0.855625 -10.1025 0.71125 -9.125 0.5625 C-2.25 -0.675 -2.25 -0.675 0 0 Z " fill="#B6B6B7" transform="translate(17,11)"/>
<path d="M0 0 C0.33 0.99 0.66 1.98 1 3 C1.66 3 2.32 3 3 3 C3 2.01 3 1.02 3 0 C3.99 0.33 4.98 0.66 6 1 C7.19302949 6.24932976 7.19302949 6.24932976 6.4375 9.1875 C4.36533359 11.80023156 2.0543055 12.75334469 -1 14 C-1.99 14 -2.98 14 -4 14 C-4 13.34 -4 12.68 -4 12 C-3.34 11.67 -2.68 11.34 -2 11 C-1.71080072 9.00773831 -1.42735449 7.01277818 -1.24609375 5.0078125 C-1 3 -1 3 0 0 Z " fill="#D6A8A8" transform="translate(26,28)"/>
<path d="M0 0 C0.99 0.33 1.98 0.66 3 1 C2.67 1.99 2.34 2.98 2 4 C2.66 4.33 3.32 4.66 4 5 C3.34 6.98 2.68 8.96 2 11 C2.66 11 3.32 11 4 11 C4.66 10.34 5.32 9.68 6 9 C6 9.99 6 10.98 6 12 C6.66 12 7.32 12 8 12 C8 12.99 8 13.98 8 15 C6.68 15 5.36 15 4 15 C3.67 14.34 3.34 13.68 3 13 C2.01 13 1.02 13 0 13 C-0.33 13.66 -0.66 14.32 -1 15 C-2.32 15 -3.64 15 -5 15 C-5 14.01 -5 13.02 -5 12 C-4.34 12 -3.68 12 -3 12 C-2.67 11.01 -2.34 10.02 -2 9 C-2 9.66 -2 10.32 -2 11 C-1.01 11 -0.02 11 1 11 C0.34 8.69 -0.32 6.38 -1 4 C-0.34 4 0.32 4 1 4 C0.67 2.68 0.34 1.36 0 0 Z " fill="#F5F7F8" transform="translate(18,20)"/>
<path d="M0 0 C1.65 0.33 3.3 0.66 5 1 C5 1.99 5 2.98 5 4 C4.34 4 3.68 4 3 4 C3.99 5.485 3.99 5.485 5 7 C5 8.32 5 9.64 5 11 C4.01 11 3.02 11 2 11 C2.33 9.68 2.66 8.36 3 7 C1.35 7 -0.3 7 -2 7 C-2.33 6.01 -2.66 5.02 -3 4 C-2.34 3.67 -1.68 3.34 -1 3 C-0.67 2.01 -0.34 1.02 0 0 Z " fill="#BBD5DF" transform="translate(14,20)"/>
<path d="M0 0 C0 2.31 0 4.62 0 7 C-0.66 6.34 -1.32 5.68 -2 5 C-2 5.99 -2 6.98 -2 8 C-4.97 7.505 -4.97 7.505 -8 7 C-7.625 4.0625 -7.625 4.0625 -7 1 C-4.53721199 -0.231394 -2.7204945 -0.07159196 0 0 Z " fill="#AEC7D1" transform="translate(28,24)"/>
<path d="M0 0 C1.32 0.33 2.64 0.66 4 1 C4.625 3.375 4.625 3.375 5 6 C4.34 6.66 3.68 7.32 3 8 C0.875 7.625 0.875 7.625 -1 7 C-1.625 5.1875 -1.625 5.1875 -2 3 C-1.34 2.01 -0.68 1.02 0 0 Z " fill="#E59D9E" transform="translate(18,32)"/>
<path d="M0 0 C0.99 1.32 1.98 2.64 3 4 C4.98491642 3.73323796 4.98491642 3.73323796 7 3 C7.33 2.01 7.66 1.02 8 0 C8.99 0.33 9.98 0.66 11 1 C9.95724749 4.2441189 8.38759509 5.60194664 5.5625 7.3125 C2 9 2 9 -1 8 C-0.01 7.01 0.98 6.02 2 5 C1.34 5 0.68 5 0 5 C0 3.35 0 1.7 0 0 Z " fill="#DADADA" transform="translate(15,35)"/>
<path d="M0 0 C1.65 0 3.3 0 5 0 C4.67 2.31 4.34 4.62 4 7 C0.25 8.125 0.25 8.125 -2 7 C-1.125 2.25 -1.125 2.25 0 0 Z " fill="#CBDEE4" transform="translate(22,17)"/>
<path d="M0 0 C3.43927579 1.2419607 6.25207819 2.55740284 9 5 C9 5.66 9 6.32 9 7 C6.69 7 4.38 7 2 7 C1.01 5.02 0.02 3.04 -1 1 C-0.67 0.67 -0.34 0.34 0 0 Z " fill="#272727" transform="translate(23,9)"/>
<path d="M0 0 C0.53625 0.226875 1.0725 0.45375 1.625 0.6875 C0.635 1.0175 -0.355 1.3475 -1.375 1.6875 C-1.375 3.0075 -1.375 4.3275 -1.375 5.6875 C-3.685 5.6875 -5.995 5.6875 -8.375 5.6875 C-8.375 4.6975 -8.375 3.7075 -8.375 2.6875 C-2.95961538 -0.38942308 -2.95961538 -0.38942308 0 0 Z " fill="#212121" transform="translate(15.375,10.3125)"/>
<path d="M0 0 C0.33 1.32 0.66 2.64 1 4 C-3.03385747 6.77327701 -5.48134633 8.41258739 -10.4375 7.75 C-11.613125 7.5025 -12.78875 7.255 -14 7 C-11.00992099 5.338845 -8.33516187 4.66703237 -5 4 C-1.82547916 2.74202164 -1.82547916 2.74202164 0 0 Z " fill="#C4C4C4" transform="translate(32,36)"/>
<path d="M0 0 C2.31 0 4.62 0 7 0 C7.33 0.99 7.66 1.98 8 3 C8.66 3.33 9.32 3.66 10 4 C10 4.66 10 5.32 10 6 C5.8333396 5.52651586 3.07115285 4.95303159 0 2 C0 1.34 0 0.68 0 0 Z " fill="#242424" transform="translate(7,36)"/>
<path d="M0 0 C2.31 0 4.62 0 7 0 C6 3 6 3 3.125 4.6875 C0 6 0 6 -3 6 C-3 5.34 -3 4.68 -3 4 C-2.34 3.67 -1.68 3.34 -1 3 C-0.67 2.01 -0.34 1.02 0 0 Z " fill="#222224" transform="translate(25,36)"/>
<path d="M0 0 C0.66 0.33 1.32 0.66 2 1 C2 4.3 2 7.6 2 11 C1.34 11 0.68 11 0 11 C-0.33 10.01 -0.66 9.02 -1 8 C-1.66 7.67 -2.32 7.34 -3 7 C-2.67 6.01 -2.34 5.02 -2 4 C-1.34 4 -0.68 4 0 4 C0 2.68 0 1.36 0 0 Z " fill="#1E1E20" transform="translate(34,20)"/>
<path d="M0 0 C0.66 0 1.32 0 2 0 C2.33 0.99 2.66 1.98 3 3 C3.66 3.33 4.32 3.66 5 4 C5 4.66 5 5.32 5 6 C4.01 6.495 4.01 6.495 3 7 C2.67 7.99 2.34 8.98 2 10 C1.34 10 0.68 10 0 10 C0 6.7 0 3.4 0 0 Z " fill="#161617" transform="translate(3,21)"/>
<path d="M0 0 C0.515625 0.2475 1.03125 0.495 1.5625 0.75 C0.5625 2.75 0.5625 2.75 -1.50390625 3.6015625 C-2.73947266 3.98441406 -2.73947266 3.98441406 -4 4.375 C-4.82628906 4.63539062 -5.65257812 4.89578125 -6.50390625 5.1640625 C-7.14199219 5.35742188 -7.78007812 5.55078125 -8.4375 5.75 C-8.7675 5.09 -9.0975 4.43 -9.4375 3.75 C-3.0375 -0.31153846 -3.0375 -0.31153846 0 0 Z " fill="#B6B6B6" transform="translate(16.4375,7.25)"/>
<path d="M0 0 C4.40114397 0.50298788 6.71195019 2.08772731 10 5 C5.32674845 5 3.17640953 3.92757363 -1 2 C-0.67 1.34 -0.34 0.68 0 0 Z " fill="#B3B3B3" transform="translate(22,7)"/>
<path d="M0 0 C1.98 0 3.96 0 6 0 C6 0.66 6 1.32 6 2 C5.34 2 4.68 2 4 2 C4 2.99 4 3.98 4 5 C2.68 4.67 1.36 4.34 0 4 C0 2.68 0 1.36 0 0 Z " fill="#F6A3A5" transform="translate(11,27)"/>
<path d="M0 0 C1.32 0.33 2.64 0.66 4 1 C4.33 2.65 4.66 4.3 5 6 C4.01 6.33 3.02 6.66 2 7 C1.34 4.69 0.68 2.38 0 0 Z " fill="#353536" transform="translate(27,17)"/>
<path d="M0 0 C0.99 0.33 1.98 0.66 3 1 C2.67 2.65 2.34 4.3 2 6 C1.01 6.33 0.02 6.66 -1 7 C-1.33 6.01 -1.66 5.02 -2 4 C-1.34 4 -0.68 4 0 4 C0 2.68 0 1.36 0 0 Z " fill="#2D2D2E" transform="translate(29,28)"/>
<path d="M0 0 C0.66 0 1.32 0 2 0 C2.66 2.31 3.32 4.62 4 7 C1.525 6.01 1.525 6.01 -1 5 C-0.67 3.35 -0.34 1.7 0 0 Z " fill="#313131" transform="translate(8,28)"/>
<path d="M0 0 C2.0625 0.4375 2.0625 0.4375 4 1 C3.67 2.32 3.34 3.64 3 5 C3 4.01 3 3.02 3 2 C2.34 2 1.68 2 1 2 C1 5.3 1 8.6 1 12 C0.67 12 0.34 12 0 12 C-0.19401633 10.18818595 -0.38004375 8.37551468 -0.5625 6.5625 C-0.66691406 5.55316406 -0.77132812 4.54382813 -0.87890625 3.50390625 C-0.91886719 2.67761719 -0.95882812 1.85132812 -1 1 C-0.67 0.67 -0.34 0.34 0 0 Z " fill="#9D9D9D" transform="translate(2,19)"/>
<path d="M0 0 C0 0.99 0 1.98 0 3 C-2.31 3 -4.62 3 -7 3 C-7 2.01 -7 1.02 -7 0 C-4.3333581 -1.33332095 -2.83319697 -0.67102033 0 0 Z " fill="#313031" transform="translate(23,13)"/>
<path d="M0 0 C0.33 0.99 0.66 1.98 1 3 C0.34 3.66 -0.32 4.32 -1 5 C-3.0625 4.8125 -3.0625 4.8125 -5 4 C-5.33 3.01 -5.66 2.02 -6 1 C-4.7934375 1.0309375 -4.7934375 1.0309375 -3.5625 1.0625 C-1.06645115 1.29633621 -1.06645115 1.29633621 0 0 Z " fill="#343435" transform="translate(22,35)"/>
<path d="M0 0 C1.98 0.495 1.98 0.495 4 1 C3.34 2.65 2.68 4.3 2 6 C1.01 5.67 0.02 5.34 -1 5 C-0.67 3.35 -0.34 1.7 0 0 Z " fill="#333333" transform="translate(8,18)"/>
<path d="M0 0 C2.475 0.495 2.475 0.495 5 1 C5.33 2.65 5.66 4.3 6 6 C5.01 6 4.02 6 3 6 C3.33 4.68 3.66 3.36 4 2 C2.68 1.67 1.36 1.34 0 1 C0 0.67 0 0.34 0 0 Z " fill="#66AFC3" transform="translate(13,25)"/>
<path d="M0 0 C1.485 0.99 1.485 0.99 3 2 C3 3.32 3 4.64 3 6 C1.68 5.67 0.36 5.34 -1 5 C-0.67 3.35 -0.34 1.7 0 0 Z " fill="#EC9C9C" transform="translate(26,18)"/>
</svg>
