<?xml version="1.0" encoding="UTF-8"?>
<!DOCTYPE svg PUBLIC "-//W3C//DTD SVG 1.1//EN" "http://www.w3.org/Graphics/SVG/1.1/DTD/svg11.dtd">
<svg xmlns="http://www.w3.org/2000/svg" version="1.1" width="166px" height="165px" style="shape-rendering:geometricPrecision; text-rendering:geometricPrecision; image-rendering:optimizeQuality; fill-rule:evenodd; clip-rule:evenodd" xmlns:xlink="http://www.w3.org/1999/xlink">
<g><path style="opacity:1" fill="#062135" d="M -0.5,-0.5 C 54.8333,-0.5 110.167,-0.5 165.5,-0.5C 165.5,18.5 165.5,37.5 165.5,56.5C 158.5,56.5 151.5,56.5 144.5,56.5C 137.466,40.7989 126.132,29.4655 110.5,22.5C 106.316,19.6595 101.649,17.9928 96.5,17.5C 86.4477,14.1525 76.1143,13.6525 65.5,16C 64.5842,16.2784 63.9175,16.7784 63.5,17.5C 53.953,19.1078 45.6196,23.1078 38.5,29.5C 35.2099,31.1236 32.5433,33.4569 30.5,36.5C 24.6821,41.3343 20.3488,47.3343 17.5,54.5C 16.8333,55.1667 16.1667,55.8333 15.5,56.5C 10.1667,56.5 4.83333,56.5 -0.5,56.5C -0.5,37.5 -0.5,18.5 -0.5,-0.5 Z"/></g>
<g><path style="opacity:1" fill="#bca036" d="M 96.5,17.5 C 85.4969,16.1967 74.4969,16.1967 63.5,17.5C 63.9175,16.7784 64.5842,16.2784 65.5,16C 76.1143,13.6525 86.4477,14.1525 96.5,17.5 Z"/></g>
<g><path style="opacity:1" fill="#122341" d="M 101.5,20.5 C 104.54,22.3459 107.873,23.6792 111.5,24.5C 111.842,25.3382 112.508,25.6716 113.5,25.5C 113.973,26.9063 114.973,27.573 116.5,27.5C 116.973,28.9063 117.973,29.573 119.5,29.5C 119.973,30.9063 120.973,31.573 122.5,31.5C 125.833,35.5 129.5,39.1667 133.5,42.5C 133.738,44.4044 134.738,45.7377 136.5,46.5C 136.427,48.0269 137.094,49.0269 138.5,49.5C 138.328,50.4916 138.662,51.1583 139.5,51.5C 140.659,55.1513 142.326,58.4846 144.5,61.5C 145.389,66.7285 146.722,71.7285 148.5,76.5C 148.5,76.8333 148.5,77.1667 148.5,77.5C 148.755,88.3783 147.422,99.045 144.5,109.5C 142.408,112.088 141.075,115.088 140.5,118.5C 139.662,118.842 139.328,119.508 139.5,120.5C 138.094,120.973 137.427,121.973 137.5,123.5C 136.094,123.973 135.427,124.973 135.5,126.5C 132.195,130.141 128.862,133.808 125.5,137.5C 123.251,138.08 121.585,139.413 120.5,141.5C 118.973,141.427 117.973,142.094 117.5,143.5C 112.795,145.853 108.128,148.186 103.5,150.5C 91.677,153.161 79.677,154.161 67.5,153.5C 67.1667,153.5 66.8333,153.5 66.5,153.5C 59.0931,150.914 51.7598,147.914 44.5,144.5C 15.6402,123.086 6.47355,95.0857 17,60.5C 34.6307,25.2707 62.7974,11.9374 101.5,20.5 Z"/></g>
<g><path style="opacity:1" fill="#cdab37" d="M 96.5,17.5 C 101.649,17.9928 106.316,19.6595 110.5,22.5C 107.574,21.5392 104.574,20.8726 101.5,20.5C 99.9275,19.3127 98.2608,18.3127 96.5,17.5 Z"/></g>
<g><path style="opacity:1" fill="#e1ddd0" d="M 101.5,20.5 C 104.574,20.8726 107.574,21.5392 110.5,22.5C 110.833,23.1667 111.167,23.8333 111.5,24.5C 107.873,23.6792 104.54,22.3459 101.5,20.5 Z"/></g>
<g><path style="opacity:1" fill="#9aa2ae" d="M 78.5,22.5 C 78.56,21.9569 78.8933,21.6236 79.5,21.5C 80.6474,23.7649 80.8141,26.0982 80,28.5C 79,27.5 78,26.5 77,25.5C 76.7508,26.624 76.2508,27.624 75.5,28.5C 73.8717,22.6362 75.0384,21.6362 79,25.5C 79.7401,24.2506 79.5735,23.2506 78.5,22.5 Z"/></g>
<g><path style="opacity:1" fill="#697488" d="M 83.5,21.5 C 85.5,21.5 87.5,21.5 89.5,21.5C 87.8183,23.1559 87.1517,25.8226 87.5,29.5C 86.325,29.719 85.325,29.3857 84.5,28.5C 85.0219,27.3926 85.3552,26.2259 85.5,25C 85.1265,23.4498 84.4599,22.2832 83.5,21.5 Z"/></g>
<g><path style="opacity:1" fill="#9ba3b0" d="M 97.5,24.5 C 101.243,24.4592 101.41,25.1259 98,26.5C 97.51,27.7932 97.3433,29.1266 97.5,30.5C 100.388,30.7804 101.888,29.4471 102,26.5C 102.852,31.2542 101.019,32.5875 96.5,30.5C 95.15,28.2174 95.4833,26.2174 97.5,24.5 Z"/></g>
<g><path style="opacity:1" fill="#838c9b" d="M 65.5,22.5 C 72.3569,22.5552 73.3569,24.2219 68.5,27.5C 69.376,28.2508 70.376,28.7508 71.5,29C 69.8988,29.2734 68.3988,29.7734 67,30.5C 66.6049,27.7934 66.1049,25.1267 65.5,22.5 Z"/></g>
<g><path style="opacity:1" fill="#c9a938" d="M 63.5,17.5 C 54.809,20.6782 46.4757,24.6782 38.5,29.5C 45.6196,23.1078 53.953,19.1078 63.5,17.5 Z"/></g>
<g><path style="opacity:1" fill="#a1a9b4" d="M 60.5,24.5 C 62.3005,25.7188 63.3005,27.5521 63.5,30C 63.1667,30.5 62.8333,31 62.5,31.5C 61.7774,29.5703 61.1107,27.237 60.5,24.5 Z"/></g>
<g><path style="opacity:1" fill="#dedddd" d="M 113.5,25.5 C 115.027,25.427 116.027,26.0937 116.5,27.5C 114.973,27.573 113.973,26.9063 113.5,25.5 Z"/></g>
<g><path style="opacity:1" fill="#8992a0" d="M 54.5,27.5 C 54.8966,26.475 55.5632,26.3083 56.5,27C 57.6853,28.353 59.0186,29.5197 60.5,30.5C 60.3333,30.8333 60.1667,31.1667 60,31.5C 59.2825,30.5494 58.4491,30.3828 57.5,31C 58.7112,31.8928 58.7112,32.7261 57.5,33.5C 56.4824,31.4061 55.4824,29.4061 54.5,27.5 Z"/></g>
<g><path style="opacity:1" fill="#ced0d1" d="M 116.5,27.5 C 118.027,27.427 119.027,28.0937 119.5,29.5C 117.973,29.573 116.973,28.9063 116.5,27.5 Z"/></g>
<g><path style="opacity:1" fill="#a2a9b3" d="M 48.5,29.5 C 50.4828,30.9022 52.1495,32.7355 53.5,35C 52.8333,35.6667 52.1667,35.6667 51.5,35C 50.7924,32.2324 49.2924,31.3991 47,32.5C 46.7613,31.212 47.2613,30.212 48.5,29.5 Z"/></g>
<g><path style="opacity:1" fill="#697384" d="M 106.5,27.5 C 110.928,28.6642 111.428,30.6642 108,33.5C 107.667,32.8333 107.333,32.1667 107,31.5C 106.751,32.624 106.251,33.624 105.5,34.5C 105.167,34.1667 104.833,33.8333 104.5,33.5C 105.372,31.5504 106.039,29.5504 106.5,27.5 Z"/></g>
<g><path style="opacity:1" fill="#f5f5f6" d="M 70.5,32.5 C 102.13,30.5425 122.63,44.5425 132,74.5C 135.418,102.507 124.584,122.673 99.5,135C 71.9211,143.777 50.0878,136.277 34,112.5C 21.7287,86.5779 25.8953,63.7446 46.5,44C 53.9318,38.7825 61.9318,34.9491 70.5,32.5 Z"/></g>
<g><path style="opacity:1" fill="#dad6c8" d="M 122.5,31.5 C 127.167,34.1667 130.833,37.8333 133.5,42.5C 129.5,39.1667 125.833,35.5 122.5,31.5 Z"/></g>
<g><path style="opacity:1" fill="#959da8" d="M 42.5,33.5 C 44.587,34.7758 46.587,36.2758 48.5,38C 46.7928,38.1953 45.1261,38.1953 43.5,38C 45.6574,39.0847 45.8241,40.2513 44,41.5C 43.2078,39.4127 42.0412,37.5793 40.5,36C 41.3805,35.2917 42.0472,34.4584 42.5,33.5 Z"/></g>
<g><path style="opacity:1" fill="#c2c5c7" d="M 88.5,39.5 C 87.0222,39.238 85.6888,39.5713 84.5,40.5C 87.6769,43.844 90.6769,47.344 93.5,51C 93.2531,55.1625 92.2531,59.3292 90.5,63.5C 88.1845,64.3596 85.8511,64.8596 83.5,65C 86.2601,63.8211 88.2601,61.9877 89.5,59.5C 90.2463,55.9002 90.0796,52.2335 89,48.5C 86.7148,47.1811 84.5482,45.6811 82.5,44C 72.4374,44.4297 68.9374,49.5963 72,59.5C 74.1906,60.8334 76.024,62.5 77.5,64.5C 76.2918,65.782 74.9584,65.782 73.5,64.5C 66.5083,58.6651 65.8416,52.1651 71.5,45C 71.1639,43.9701 70.4972,43.4701 69.5,43.5C 71.2294,42.7638 72.2294,41.4305 72.5,39.5C 78.0419,36.3552 83.3753,36.3552 88.5,39.5 Z"/></g>
<g><path style="opacity:1" fill="#8b929f" d="M 122.5,38.5 C 125.69,39.6671 126.023,41.3338 123.5,43.5C 123.94,42.0475 123.274,40.8808 121.5,40C 122.056,39.6174 122.389,39.1174 122.5,38.5 Z"/></g>
<g><path style="opacity:1" fill="#9099a6" d="M 116.5,35.5 C 118.975,37.5578 118.975,39.5578 116.5,41.5C 116.254,39.7805 116.254,37.7805 116.5,35.5 Z"/></g>
<g><path style="opacity:1" fill="#8e95a1" d="M 35.5,39.5 C 37.8068,40.6534 40.1401,41.8201 42.5,43C 41.2513,44.8241 40.0847,44.6574 39,42.5C 38.3162,43.7839 38.4829,44.9505 39.5,46C 39,46.5 38.5,47 38,47.5C 36.8644,44.9036 36.031,42.237 35.5,39.5 Z"/></g>
<g><path style="opacity:1" fill="#bbbfc1" d="M 133.5,42.5 C 135.262,43.2623 136.262,44.5956 136.5,46.5C 134.738,45.7377 133.738,44.4044 133.5,42.5 Z"/></g>
<g><path style="opacity:1" fill="#cfae44" d="M 30.5,36.5 C 26.1347,42.5235 21.8013,48.5235 17.5,54.5C 20.3488,47.3343 24.6821,41.3343 30.5,36.5 Z"/></g>
<g><path style="opacity:1" fill="#8f8f8f" d="M 72.5,39.5 C 72.2294,41.4305 71.2294,42.7638 69.5,43.5C 68.4823,45.3519 67.1489,47.0186 65.5,48.5C 65.6886,51.9851 65.6886,55.6518 65.5,59.5C 64.5222,59.189 63.8555,58.5223 63.5,57.5C 62.3787,49.4629 65.3787,43.4629 72.5,39.5 Z"/></g>
<g><path style="opacity:1" fill="#9da3b0" d="M 32.5,47.5 C 33.452,48.452 34.452,49.452 35.5,50.5C 33.8767,51.4756 32.5433,50.9756 31.5,49C 32.056,48.6174 32.3893,48.1174 32.5,47.5 Z"/></g>
<g><path style="opacity:1" fill="#8c93a1" d="M 128.5,46.5 C 129.497,46.4701 130.164,46.9701 130.5,48C 129.409,49.7623 128.409,51.5956 127.5,53.5C 126.41,52.6086 126.41,51.6086 127.5,50.5C 126.271,49.7189 124.938,49.2189 123.5,49C 125.315,48.2432 126.981,47.4098 128.5,46.5 Z"/></g>
<g><path style="opacity:1" fill="#d0d1cd" d="M 136.5,46.5 C 137.906,46.9731 138.573,47.9731 138.5,49.5C 137.094,49.0269 136.427,48.0269 136.5,46.5 Z"/></g>
<g><path style="opacity:1" fill="#929aa7" d="M 132.5,52.5 C 133.189,51.2264 134.023,51.2264 135,52.5C 136.187,54.0444 136.52,55.7111 136,57.5C 135.692,56.6919 135.192,56.0253 134.5,55.5C 132.922,56.6405 131.256,57.1405 129.5,57C 131.001,55.7485 132.668,54.7485 134.5,54C 133.956,53.2828 133.289,52.7828 132.5,52.5 Z"/></g>
<g><path style="opacity:1" fill="#d7d7d1" d="M 139.5,51.5 C 142.207,54.2466 143.873,57.5799 144.5,61.5C 142.326,58.4846 140.659,55.1513 139.5,51.5 Z"/></g>
<g><path style="opacity:1" fill="#79652a" d="M 109.5,59.5 C 109.196,57.2043 108.196,56.871 106.5,58.5C 106.5,57.1667 106.5,55.8333 106.5,54.5C 110.273,54.6573 111.273,56.324 109.5,59.5 Z"/></g>
<g><path style="opacity:1" fill="#0c314c" d="M -0.5,56.5 C 4.83333,56.5 10.1667,56.5 15.5,56.5C 8.45756,73.0403 7.79089,89.707 13.5,106.5C 13.7701,110.358 15.1034,113.691 17.5,116.5C 17.2291,118.38 17.8958,119.713 19.5,120.5C 20.7232,124.049 22.7232,127.049 25.5,129.5C 34.9857,142.443 47.6524,150.943 63.5,155C 99.5958,161.032 126.429,148.199 144,116.5C 152.471,96.5309 152.638,76.5309 144.5,56.5C 151.5,56.5 158.5,56.5 165.5,56.5C 165.5,92.5 165.5,128.5 165.5,164.5C 110.167,164.5 54.8333,164.5 -0.5,164.5C -0.5,128.5 -0.5,92.5 -0.5,56.5 Z"/></g>
<g><path style="opacity:1" fill="#989eaa" d="M 25.5,51.5 C 28.5341,51.6095 29.5341,52.9428 28.5,55.5C 29.8114,56.2575 30.3114,57.2575 30,58.5C 28.0266,57.3601 26.1933,56.0267 24.5,54.5C 25.1272,53.5832 25.4606,52.5832 25.5,51.5 Z"/></g>
<g><path style="opacity:1" fill="#736126" d="M 53.5,58.5 C 52.609,57.8902 51.609,57.5569 50.5,57.5C 50.5,56.5 50.5,55.5 50.5,54.5C 51.5,54.5 52.5,54.5 53.5,54.5C 53.5,55.8333 53.5,57.1667 53.5,58.5 Z"/></g>
<g><path style="opacity:1" fill="#d6b023" d="M 50.5,57.5 C 51.609,57.5569 52.609,57.8902 53.5,58.5C 53.6716,59.4916 53.3382,60.1583 52.5,60.5C 50.2779,60.0252 49.6112,59.0252 50.5,57.5 Z"/></g>
<g><path style="opacity:1" fill="#cea81e" d="M 109.5,59.5 C 109.5,60.1667 109.167,60.5 108.5,60.5C 107.167,60.5 106.5,59.8333 106.5,58.5C 108.196,56.871 109.196,57.2043 109.5,59.5 Z"/></g>
<g><path style="opacity:1" fill="#bca33e" d="M 17.5,54.5 C 13.601,64.0984 11.2676,74.0984 10.5,84.5C 11.1285,91.8989 12.1285,99.2322 13.5,106.5C 7.79089,89.707 8.45756,73.0403 15.5,56.5C 16.1667,55.8333 16.8333,55.1667 17.5,54.5 Z"/></g>
<g><path style="opacity:1" fill="#73622b" d="M 106.5,58.5 C 106.5,59.8333 107.167,60.5 108.5,60.5C 108.011,61.9952 107.345,63.3285 106.5,64.5C 106.5,63.5 106.5,62.5 106.5,61.5C 105.5,61.5 104.5,61.5 103.5,61.5C 102.506,59.1457 103.506,58.1457 106.5,58.5 Z"/></g>
<g><path style="opacity:1" fill="#b4bac3" d="M 22.5,60.5 C 23.8845,59.1991 25.3845,59.1991 27,60.5C 27.8201,62.728 27.4868,64.728 26,66.5C 24.2197,65.4063 22.3864,64.4063 20.5,63.5C 20.6667,63.1667 20.8333,62.8333 21,62.5C 22.4411,63.2598 23.9411,63.9264 25.5,64.5C 26.9318,61.5812 25.9318,60.2479 22.5,60.5 Z"/></g>
<g><path style="opacity:1" fill="#646b7f" d="M 137.5,59.5 C 139.616,61.0881 139.949,63.0881 138.5,65.5C 136.866,65.032 135.7,64.032 135,62.5C 133.703,63.7836 132.536,63.6169 131.5,62C 133.974,61.9633 135.974,61.13 137.5,59.5 Z"/></g>
<g><path style="opacity:1" fill="#e5e2d2" d="M 144.5,61.5 C 146.902,66.1006 148.235,71.1006 148.5,76.5C 146.722,71.7285 145.389,66.7285 144.5,61.5 Z"/></g>
<g><path style="opacity:1" fill="#f2f3f3" d="M 88.5,39.5 C 91.0048,42.2557 93.3381,45.2557 95.5,48.5C 95.6382,52.0417 95.3048,55.7084 94.5,59.5C 93.3451,62.3892 91.6784,64.8892 89.5,67C 86.5316,69.0001 83.5316,70.1668 80.5,70.5C 79.1804,68.7299 77.6804,68.3966 76,69.5C 74.4173,67.945 72.584,66.7783 70.5,66C 68.9142,63.6056 67.2475,61.4389 65.5,59.5C 65.6886,55.6518 65.6886,51.9851 65.5,48.5C 67.1489,47.0186 68.4823,45.3519 69.5,43.5C 70.4972,43.4701 71.1639,43.9701 71.5,45C 65.8416,52.1651 66.5083,58.6651 73.5,64.5C 74.9584,65.782 76.2918,65.782 77.5,64.5C 81.8735,63.8092 85.8735,62.1425 89.5,59.5C 88.2601,61.9877 86.2601,63.8211 83.5,65C 85.8511,64.8596 88.1845,64.3596 90.5,63.5C 92.2531,59.3292 93.2531,55.1625 93.5,51C 90.6769,47.344 87.6769,43.844 84.5,40.5C 85.6888,39.5713 87.0222,39.238 88.5,39.5 Z"/></g>
<g><path style="opacity:1" fill="#76b8e9" d="M 89.5,59.5 C 85.8735,62.1425 81.8735,63.8092 77.5,64.5C 76.024,62.5 74.1906,60.8334 72,59.5C 68.9374,49.5963 72.4374,44.4297 82.5,44C 84.5482,45.6811 86.7148,47.1811 89,48.5C 90.0796,52.2335 90.2463,55.9002 89.5,59.5 Z"/></g>
<g><path style="opacity:1" fill="#b29221" d="M 103.5,61.5 C 104.5,61.5 105.5,61.5 106.5,61.5C 106.5,62.5 106.5,63.5 106.5,64.5C 101.136,66.6011 96.3023,69.6011 92,73.5C 91.5439,74.7441 92.0439,75.5774 93.5,76C 92.1336,78.9973 91.467,82.164 91.5,85.5C 90.1667,85.5 88.8333,85.5 87.5,85.5C 87.2627,84.209 87.596,83.209 88.5,82.5C 89.3631,81.4606 90.3631,79.7939 91.5,77.5C 90.7573,76.8182 90.0906,76.1515 89.5,75.5C 88.7222,74.8444 88.0556,74.0111 87.5,73C 89.3505,71.317 91.0172,69.4837 92.5,67.5C 95.718,64.7235 99.3847,62.7235 103.5,61.5 Z"/></g>
<g><path style="opacity:1" fill="#b3b3b2" d="M 88.5,39.5 C 97.3079,45.7075 99.4745,53.7075 95,63.5C 94,64.1667 93,64.8333 92,65.5C 91.3083,66.4368 91.475,67.1034 92.5,67.5C 91.0172,69.4837 89.3505,71.317 87.5,73C 88.0556,74.0111 88.7222,74.8444 89.5,75.5C 87.2472,77.4503 86.9139,79.7837 88.5,82.5C 87.596,83.209 87.2627,84.209 87.5,85.5C 88.8333,85.5 90.1667,85.5 91.5,85.5C 90.8333,86.1667 90.1667,86.8333 89.5,87.5C 87.8868,87.0557 86.7202,86.0557 86,84.5C 85.6667,85.1667 85.3333,85.8333 85,86.5C 84.2917,85.6195 83.4584,84.9528 82.5,84.5C 83.5676,83.5655 84.901,83.2322 86.5,83.5C 86.6641,80.8127 86.4974,78.146 86,75.5C 84.3196,74.3966 82.8196,74.7299 81.5,76.5C 78.9244,75.1166 79.2577,74.2833 82.5,74C 80.735,73.3603 79.0683,73.5269 77.5,74.5C 73.5134,74.6518 72.0134,76.6518 73,80.5C 73.2492,79.376 73.7492,78.376 74.5,77.5C 75.8092,79.2395 75.4759,80.5729 73.5,81.5C 72.8333,81.5 72.1667,81.5 71.5,81.5C 71.1667,80.1667 70.8333,78.8333 70.5,77.5C 70.5,76.8333 70.5,76.1667 70.5,75.5C 72.2726,74.6857 72.7726,73.3524 72,71.5C 69.9373,69.2659 67.7706,67.2659 65.5,65.5C 69.1396,66.5415 69.3062,65.8748 66,63.5C 65.51,62.2068 65.3433,60.8734 65.5,59.5C 67.2475,61.4389 68.9142,63.6056 70.5,66C 72.584,66.7783 74.4173,67.945 76,69.5C 77.6804,68.3966 79.1804,68.7299 80.5,70.5C 83.5316,70.1668 86.5316,69.0001 89.5,67C 91.6784,64.8892 93.3451,62.3892 94.5,59.5C 95.3048,55.7084 95.6382,52.0417 95.5,48.5C 93.3381,45.2557 91.0048,42.2557 88.5,39.5 Z"/></g>
<g><path style="opacity:1" fill="#7c5229" d="M 52.5,64.5 C 57.7644,67.929 62.2644,72.2624 66,77.5C 66.6979,76.3094 67.5313,75.3094 68.5,74.5C 69.1667,74.8333 69.8333,75.1667 70.5,75.5C 70.5,76.1667 70.5,76.8333 70.5,77.5C 68.1625,75.9893 67.4958,76.3227 68.5,78.5C 64.4253,81.367 63.592,85.0337 66,89.5C 69.8153,90.2342 72.3153,88.5676 73.5,84.5C 74.1667,84.5 74.8333,84.5 75.5,84.5C 75.7748,86.8418 76.6081,86.8418 78,84.5C 78.6914,86.8912 79.6914,86.8912 81,84.5C 81.7792,87.0972 82.2792,87.0972 82.5,84.5C 83.4584,84.9528 84.2917,85.6195 85,86.5C 85.3333,85.8333 85.6667,85.1667 86,84.5C 86.7202,86.0557 87.8868,87.0557 89.5,87.5C 91.2224,90.91 93.3891,91.2434 96,88.5C 96.1372,84.3784 95.8039,80.3784 95,76.5C 99.2052,71.1127 104.372,67.1127 110.5,64.5C 112.355,64.272 113.188,64.9387 113,66.5C 109.752,68.2071 106.585,70.0404 103.5,72C 105.5,71.6667 107.5,71.3333 109.5,71C 107.999,72.2515 106.332,73.2515 104.5,74C 105.5,74.3333 106.5,74.6667 107.5,75C 105.253,76.3088 102.92,76.9755 100.5,77C 101.328,76.0853 102.328,75.4186 103.5,75C 100.906,74.5507 98.9063,75.5507 97.5,78C 98.0749,80.1414 98.4082,82.6414 98.5,85.5C 100.527,85.3379 102.527,85.5045 104.5,86C 99.373,86.4741 99.373,87.4741 104.5,89C 102.433,89.5356 100.599,89.0356 99,87.5C 96.9851,89.4783 97.1517,91.3116 99.5,93C 98.8333,93.3333 98.1667,93.6667 97.5,94C 98.4506,94.7175 98.6172,95.5509 98,96.5C 96.6152,95.4495 95.6152,94.1161 95,92.5C 94.8301,94.8454 95.1635,97.1788 96,99.5C 97,96.8333 98,96.8333 99,99.5C 99.7401,100.749 99.5735,101.749 98.5,102.5C 96.5621,104.245 94.2287,105.245 91.5,105.5C 91.8064,102.615 91.4731,99.9479 90.5,97.5C 90.5,95.1667 90.5,92.8333 90.5,90.5C 83.8333,90.5 77.1667,90.5 70.5,90.5C 70.5,92.8333 70.5,95.1667 70.5,97.5C 69.5269,99.9479 69.1936,102.615 69.5,105.5C 67.8828,104.962 66.2161,104.629 64.5,104.5C 64.9923,100.71 64.159,100.044 62,102.5C 61.4644,100.433 61.9644,98.5994 63.5,97C 60.1638,95.186 59.9971,93.3527 63,91.5C 63.5,92.6667 64.3333,93.5 65.5,94C 64.5455,97.3124 64.8788,97.3124 66.5,94C 63.1967,90.1712 61.6967,85.6712 62,80.5C 60.887,81.7604 60.7203,82.927 61.5,84C 59.7412,84.7975 58.0745,84.6309 56.5,83.5C 58.9913,82.4593 58.9913,81.6259 56.5,81C 57.5,80.6667 58.5,80.3333 59.5,80C 57.9559,79.7104 56.6226,79.0437 55.5,78C 57.7352,77.9326 59.9019,78.4326 62,79.5C 62.5,79 63,78.5 63.5,78C 61.9512,76.786 60.7845,75.286 60,73.5C 59.9152,75.0846 59.7486,76.4179 59.5,77.5C 57.8333,76.8333 56.1667,76.1667 54.5,75.5C 52.2984,76.7797 50.1317,76.7797 48,75.5C 47.8333,75.8333 47.6667,76.1667 47.5,76.5C 56.5602,78.5347 56.5602,79.5347 47.5,79.5C 46.6942,78.0028 46.0276,76.3361 45.5,74.5C 45.7093,73.914 46.0426,73.414 46.5,73C 45.1667,71 43.8333,69 42.5,67C 43.1667,66.3333 43.8333,65.6667 44.5,65C 39.2144,61.8023 39.8811,60.8023 46.5,62C 48.4068,63.122 50.4068,63.9553 52.5,64.5 Z"/></g>
<g><path style="opacity:1" fill="#dddee2" d="M 52.5,64.5 C 58.8182,66.3222 64.1515,69.6556 68.5,74.5C 67.5313,75.3094 66.6979,76.3094 66,77.5C 62.2644,72.2624 57.7644,67.929 52.5,64.5 Z"/></g>
<g><path style="opacity:1" fill="#9c8124" d="M 53.5,58.5 C 56.1142,58.2771 57.7809,59.4438 58.5,62C 60.8864,63.1932 63.2198,64.3599 65.5,65.5C 67.7706,67.2659 69.9373,69.2659 72,71.5C 72.7726,73.3524 72.2726,74.6857 70.5,75.5C 69.8333,75.1667 69.1667,74.8333 68.5,74.5C 64.1515,69.6556 58.8182,66.3222 52.5,64.5C 52.5,63.1667 52.5,61.8333 52.5,60.5C 53.3382,60.1583 53.6716,59.4916 53.5,58.5 Z"/></g>
<g><path style="opacity:1" fill="#eaeaea" d="M 82.5,84.5 C 82.2792,87.0972 81.7792,87.0972 81,84.5C 79.6914,86.8912 78.6914,86.8912 78,84.5C 76.6081,86.8418 75.7748,86.8418 75.5,84.5C 77.2763,81.2304 77.943,77.8971 77.5,74.5C 79.0683,73.5269 80.735,73.3603 82.5,74C 79.2577,74.2833 78.9244,75.1166 81.5,76.5C 82.8196,74.7299 84.3196,74.3966 86,75.5C 86.4974,78.146 86.6641,80.8127 86.5,83.5C 84.901,83.2322 83.5676,83.5655 82.5,84.5 Z"/></g>
<g><path style="opacity:1" fill="#d0d4da" d="M 19.5,75.5 C 22.9544,77.0986 22.6211,78.7652 18.5,80.5C 18.4455,79.4699 18.1122,78.3033 17.5,77C 18.4158,76.7216 19.0825,76.2216 19.5,75.5 Z"/></g>
<g><path style="opacity:1" fill="#a6891f" d="M 77.5,74.5 C 77.943,77.8971 77.2763,81.2304 75.5,84.5C 74.8333,84.5 74.1667,84.5 73.5,84.5C 73.5,83.5 73.5,82.5 73.5,81.5C 75.4759,80.5729 75.8092,79.2395 74.5,77.5C 73.7492,78.376 73.2492,79.376 73,80.5C 72.0134,76.6518 73.5134,74.6518 77.5,74.5 Z"/></g>
<g><path style="opacity:1" fill="#d9dbdf" d="M 89.5,75.5 C 90.0906,76.1515 90.7573,76.8182 91.5,77.5C 90.3631,79.7939 89.3631,81.4606 88.5,82.5C 86.9139,79.7837 87.2472,77.4503 89.5,75.5 Z"/></g>
<g><path style="opacity:1" fill="#f4f4f5" d="M 68.5,78.5 C 69.1001,79.9002 70.1001,80.9002 71.5,81.5C 72.1667,81.5 72.8333,81.5 73.5,81.5C 73.5,82.5 73.5,83.5 73.5,84.5C 72.3153,88.5676 69.8153,90.2342 66,89.5C 63.592,85.0337 64.4253,81.367 68.5,78.5 Z"/></g>
<g><path style="opacity:1" fill="#c4a519" d="M 70.5,77.5 C 70.8333,78.8333 71.1667,80.1667 71.5,81.5C 70.1001,80.9002 69.1001,79.9002 68.5,78.5C 67.4958,76.3227 68.1625,75.9893 70.5,77.5 Z"/></g>
<g><path style="opacity:1" fill="#dbdde2" d="M 139.5,75.5 C 142.931,76.831 142.765,78.4977 139,80.5C 138.691,79.2341 138.191,78.0674 137.5,77C 138.416,76.7216 139.082,76.2216 139.5,75.5 Z"/></g>
<g><path style="opacity:1" fill="#714a28" d="M 98.5,102.5 C 99.5735,101.749 99.7401,100.749 99,99.5C 98,96.8333 97,96.8333 96,99.5C 95.1635,97.1788 94.8301,94.8454 95,92.5C 95.6152,94.1161 96.6152,95.4495 98,96.5C 98.6172,95.5509 98.4506,94.7175 97.5,94C 98.1667,93.6667 98.8333,93.3333 99.5,93C 97.1517,91.3116 96.9851,89.4783 99,87.5C 100.599,89.0356 102.433,89.5356 104.5,89C 99.373,87.4741 99.373,86.4741 104.5,86C 102.527,85.5045 100.527,85.3379 98.5,85.5C 98.4082,82.6414 98.0749,80.1414 97.5,78C 98.9063,75.5507 100.906,74.5507 103.5,75C 102.328,75.4186 101.328,76.0853 100.5,77C 102.92,76.9755 105.253,76.3088 107.5,75C 106.5,74.6667 105.5,74.3333 104.5,74C 106.332,73.2515 107.999,72.2515 109.5,71C 107.5,71.3333 105.5,71.6667 103.5,72C 106.585,70.0404 109.752,68.2071 113,66.5C 113.188,64.9387 112.355,64.272 110.5,64.5C 113.755,61.7705 117.422,60.7705 121.5,61.5C 119.972,62.8613 118.305,64.028 116.5,65C 117.167,65.6667 117.833,66.3333 118.5,67C 117.303,70.5316 115.636,73.6983 113.5,76.5C 114.087,79.397 114.42,82.397 114.5,85.5C 112.615,86.1973 112.282,87.1973 113.5,88.5C 111.813,91.0236 110.48,93.6903 109.5,96.5C 107.5,97.1667 105.5,97.8333 103.5,98.5C 103.5,99.5 103.5,100.5 103.5,101.5C 101.857,101.48 100.524,102.147 99.5,103.5C 98.8933,103.376 98.56,103.043 98.5,102.5 Z"/></g>
<g><path style="opacity:1" fill="#6b4829" d="M 64.5,104.5 C 62.2288,103.316 59.8954,102.316 57.5,101.5C 57.5,100.5 57.5,99.5 57.5,98.5C 55.5,97.8333 53.5,97.1667 51.5,96.5C 50.5202,93.6903 49.1869,91.0236 47.5,88.5C 48.7178,87.1973 48.3845,86.1973 46.5,85.5C 46.8028,83.4706 47.1362,81.4706 47.5,79.5C 56.5602,79.5347 56.5602,78.5347 47.5,76.5C 47.6667,76.1667 47.8333,75.8333 48,75.5C 50.1317,76.7797 52.2984,76.7797 54.5,75.5C 56.1667,76.1667 57.8333,76.8333 59.5,77.5C 59.7486,76.4179 59.9152,75.0846 60,73.5C 60.7845,75.286 61.9512,76.786 63.5,78C 63,78.5 62.5,79 62,79.5C 59.9019,78.4326 57.7352,77.9326 55.5,78C 56.6226,79.0437 57.9559,79.7104 59.5,80C 58.5,80.3333 57.5,80.6667 56.5,81C 58.9913,81.6259 58.9913,82.4593 56.5,83.5C 58.0745,84.6309 59.7412,84.7975 61.5,84C 60.7203,82.927 60.887,81.7604 62,80.5C 61.6967,85.6712 63.1967,90.1712 66.5,94C 64.8788,97.3124 64.5455,97.3124 65.5,94C 64.3333,93.5 63.5,92.6667 63,91.5C 59.9971,93.3527 60.1638,95.186 63.5,97C 61.9644,98.5994 61.4644,100.433 62,102.5C 64.159,100.044 64.9923,100.71 64.5,104.5 Z"/></g>
<g><path style="opacity:1" fill="#abb2bd" d="M 21.5,89.5 C 22.3764,89.3691 23.0431,89.7025 23.5,90.5C 21.9223,91.2978 20.2556,91.7978 18.5,92C 16.9494,95.36 16.4494,95.1934 17,91.5C 18.6225,90.9011 20.1225,90.2344 21.5,89.5 Z"/></g>
<g><path style="opacity:1" fill="#e3decf" d="M 96.5,17.5 C 98.2608,18.3127 99.9275,19.3127 101.5,20.5C 62.7974,11.9374 34.6307,25.2707 17,60.5C 6.47355,95.0857 15.6402,123.086 44.5,144.5C 41.4838,143.657 38.8171,142.157 36.5,140C 32.9643,136.296 29.2976,132.796 25.5,129.5C 22.7232,127.049 20.7232,124.049 19.5,120.5C 19.3404,118.847 18.6737,117.514 17.5,116.5C 16.7333,112.851 15.3999,109.518 13.5,106.5C 12.1285,99.2322 11.1285,91.8989 10.5,84.5C 11.2676,74.0984 13.601,64.0984 17.5,54.5C 21.8013,48.5235 26.1347,42.5235 30.5,36.5C 32.5433,33.4569 35.2099,31.1236 38.5,29.5C 46.4757,24.6782 54.809,20.6782 63.5,17.5C 74.4969,16.1967 85.4969,16.1967 96.5,17.5 Z"/></g>
<g><path style="opacity:1" fill="#002a76" d="M 90.5,97.5 C 90.1667,97.5 89.8333,97.5 89.5,97.5C 88.8333,97.5 88.1667,97.5 87.5,97.5C 81.8333,97.5 76.1667,97.5 70.5,97.5C 70.5,95.1667 70.5,92.8333 70.5,90.5C 77.1667,90.5 83.8333,90.5 90.5,90.5C 90.5,92.8333 90.5,95.1667 90.5,97.5 Z"/></g>
<g><path style="opacity:1" fill="#949ca8" d="M 138.5,90.5 C 140.199,90.3398 141.866,90.5065 143.5,91C 140.972,92.0174 140.972,93.1841 143.5,94.5C 141.836,95.2231 140.169,94.8897 138.5,93.5C 137.438,92.5754 137.438,91.5754 138.5,90.5 Z"/></g>
<g><path style="opacity:1" fill="#8e96a2" d="M 21.5,102.5 C 21.6309,101.624 21.2975,100.957 20.5,100.5C 19.3914,101.59 18.3914,101.59 17.5,100.5C 19.7812,99.7234 21.9479,98.7234 24,97.5C 24.747,99.9278 23.9137,101.594 21.5,102.5 Z"/></g>
<g><path style="opacity:1" fill="#82131e" d="M 71.5,98.5 C 73.4417,103.056 74.1083,108.056 73.5,113.5C 72.8333,113.5 72.1667,113.5 71.5,113.5C 71.5,108.5 71.5,103.5 71.5,98.5 Z"/></g>
<g><path style="opacity:1" fill="#aa6b68" d="M 70.5,97.5 C 76.1667,97.5 81.8333,97.5 87.5,97.5C 87.5,102.833 87.5,108.167 87.5,113.5C 85.5,113.5 83.5,113.5 81.5,113.5C 80.8333,93.5 80.1667,93.5 79.5,113.5C 77.5,113.5 75.5,113.5 73.5,113.5C 74.1083,108.056 73.4417,103.056 71.5,98.5C 70.8333,98.5 70.5,98.1667 70.5,97.5 Z"/></g>
<g><path style="opacity:1" fill="#a9979c" d="M 81.5,113.5 C 80.8333,113.5 80.1667,113.5 79.5,113.5C 80.1667,93.5 80.8333,93.5 81.5,113.5 Z"/></g>
<g><path style="opacity:1" fill="#881821" d="M 87.5,97.5 C 88.1667,97.5 88.8333,97.5 89.5,97.5C 89.5,102.833 89.5,108.167 89.5,113.5C 88.8333,113.5 88.1667,113.5 87.5,113.5C 87.5,108.167 87.5,102.833 87.5,97.5 Z"/></g>
<g><path style="opacity:1" fill="#98a0ad" d="M 136.5,96.5 C 137.376,96.3691 138.043,96.7025 138.5,97.5C 135.624,100.716 136.29,102.216 140.5,102C 141.191,100.933 141.691,99.7659 142,98.5C 142.623,103.344 140.623,104.678 136,102.5C 135.322,100.402 135.489,98.4024 136.5,96.5 Z"/></g>
<g><path style="opacity:1" fill="#266238" d="M 51.5,112.5 C 51.1667,113.5 50.5,114.167 49.5,114.5C 49.2172,113.711 48.7172,113.044 48,112.5C 48.0461,115.633 47.0461,118.3 45,120.5C 44.6667,118.833 44.3333,117.167 44,115.5C 43.5756,117.615 42.4089,118.448 40.5,118C 43.3783,115.306 42.7117,113.806 38.5,113.5C 38.7093,112.914 39.0426,112.414 39.5,112C 36.2374,111.131 35.9041,109.797 38.5,108C 32.568,104.778 32.568,102.445 38.5,101C 35.2967,99.8281 33.7967,97.6614 34,94.5C 34.414,94.9574 34.914,95.2907 35.5,95.5C 36.1235,93.0339 36.9568,90.7006 38,88.5C 38.9147,89.3279 39.5814,90.3279 40,91.5C 40.414,91.0426 40.914,90.7093 41.5,90.5C 42.5,92.5 43.5,94.5 44.5,96.5C 43.5,98.5 42.5,100.5 41.5,102.5C 41.5565,103.737 42.0565,104.737 43,105.5C 43.4728,103.221 44.4728,101.221 46,99.5C 46.5182,104.281 47.8515,104.614 50,100.5C 50.2189,101.938 50.7189,103.271 51.5,104.5C 52.451,103.674 53.451,103.508 54.5,104C 53.7882,106.881 52.1215,109.048 49.5,110.5C 49.8555,111.522 50.5222,112.189 51.5,112.5 Z"/></g>
<g><path style="opacity:1" fill="#969eab" d="M 21.5,102.5 C 22.5417,103.791 23.7083,103.791 25,102.5C 25.5,103 26,103.5 26.5,104C 24.236,104.236 22.0693,104.736 20,105.5C 19.4153,104.002 19.9153,103.002 21.5,102.5 Z"/></g>
<g><path style="opacity:1" fill="#8a8a8a" d="M 110.5,112.5 C 109.391,112.443 108.391,112.11 107.5,111.5C 107.5,111.167 107.5,110.833 107.5,110.5C 110.6,104.782 113.266,99.115 115.5,93.5C 116.243,94.9079 117.077,96.2412 118,97.5C 118.837,95.1558 120.171,93.1558 122,91.5C 121.408,95.1073 122.241,95.274 124.5,92C 126.586,91.3734 126.919,91.8734 125.5,93.5C 126.025,94.1924 126.692,94.6924 127.5,95C 126.289,96.1131 126.289,97.2798 127.5,98.5C 126.358,100.378 125.358,102.212 124.5,104C 125.167,104.333 125.833,104.667 126.5,105C 121.302,107.766 115.968,110.266 110.5,112.5 Z"/></g>
<g><path style="opacity:1" fill="#e6e1ce" d="M 148.5,77.5 C 149.807,86.4297 149.307,95.4297 147,104.5C 146.626,106.491 145.793,108.158 144.5,109.5C 147.422,99.045 148.755,88.3783 148.5,77.5 Z"/></g>
<g><path style="opacity:1" fill="#a7adb8" d="M 133.5,105.5 C 136.402,105.823 138.235,107.156 139,109.5C 136.689,108.603 134.856,107.27 133.5,105.5 Z"/></g>
<g><path style="opacity:1" fill="#e6cf8e" d="M 70.5,97.5 C 70.5,98.1667 70.8333,98.5 71.5,98.5C 71.5,103.5 71.5,108.5 71.5,113.5C 71.1667,113.5 70.8333,113.5 70.5,113.5C 69.5318,111.393 69.1984,109.059 69.5,106.5C 69.5,106.167 69.5,105.833 69.5,105.5C 69.1936,102.615 69.5269,99.9479 70.5,97.5 Z"/></g>
<g><path style="opacity:1" fill="#dcc786" d="M 89.5,97.5 C 89.8333,97.5 90.1667,97.5 90.5,97.5C 91.4731,99.9479 91.8064,102.615 91.5,105.5C 91.5,105.833 91.5,106.167 91.5,106.5C 91.8016,109.059 91.4682,111.393 90.5,113.5C 90.1667,113.5 89.8333,113.5 89.5,113.5C 89.5,108.167 89.5,102.833 89.5,97.5 Z"/></g>
<g><path style="opacity:1" fill="#a5abb6" d="M 26.5,106.5 C 27.7733,107.077 27.7733,107.743 26.5,108.5C 24.7419,109.128 23.2419,110.128 22,111.5C 21.3076,110.975 20.8076,110.308 20.5,109.5C 22.7451,108.792 24.7451,107.792 26.5,106.5 Z"/></g>
<g><path style="opacity:1" fill="#ccac46" d="M 110.5,22.5 C 126.132,29.4655 137.466,40.7989 144.5,56.5C 152.638,76.5309 152.471,96.5309 144,116.5C 126.429,148.199 99.5958,161.032 63.5,155C 47.6524,150.943 34.9857,142.443 25.5,129.5C 29.2976,132.796 32.9643,136.296 36.5,140C 38.8171,142.157 41.4838,143.657 44.5,144.5C 50.9584,149.436 58.2917,152.436 66.5,153.5C 66.8333,153.5 67.1667,153.5 67.5,153.5C 68.6085,154.29 69.9419,154.79 71.5,155C 82.689,156.187 93.3557,154.687 103.5,150.5C 108.128,148.186 112.795,145.853 117.5,143.5C 119.027,143.573 120.027,142.906 120.5,141.5C 122.749,140.92 124.415,139.587 125.5,137.5C 128.862,133.808 132.195,130.141 135.5,126.5C 136.906,126.027 137.573,125.027 137.5,123.5C 138.906,123.027 139.573,122.027 139.5,120.5C 139.328,119.508 139.662,118.842 140.5,118.5C 142.607,115.943 143.941,112.943 144.5,109.5C 145.793,108.158 146.626,106.491 147,104.5C 149.307,95.4297 149.807,86.4297 148.5,77.5C 148.5,77.1667 148.5,76.8333 148.5,76.5C 148.235,71.1006 146.902,66.1006 144.5,61.5C 143.873,57.5799 142.207,54.2466 139.5,51.5C 138.662,51.1583 138.328,50.4916 138.5,49.5C 138.573,47.9731 137.906,46.9731 136.5,46.5C 136.262,44.5956 135.262,43.2623 133.5,42.5C 130.833,37.8333 127.167,34.1667 122.5,31.5C 120.973,31.573 119.973,30.9063 119.5,29.5C 119.027,28.0937 118.027,27.427 116.5,27.5C 116.027,26.0937 115.027,25.427 113.5,25.5C 112.508,25.6716 111.842,25.3382 111.5,24.5C 111.167,23.8333 110.833,23.1667 110.5,22.5 Z"/></g>
<g><path style="opacity:1" fill="#ceb14c" d="M 13.5,106.5 C 15.3999,109.518 16.7333,112.851 17.5,116.5C 15.1034,113.691 13.7701,110.358 13.5,106.5 Z"/></g>
<g><path style="opacity:1" fill="#9e8424" d="M 59.5,113.5 C 60.1098,114.391 60.4431,115.391 60.5,116.5C 59.1667,116.5 57.8333,116.5 56.5,116.5C 56.0472,115.542 55.3805,114.708 54.5,114C 55.4506,113.282 55.6172,112.449 55,111.5C 54.31,112.738 53.81,112.738 53.5,111.5C 54.209,110.596 55.209,110.263 56.5,110.5C 56.5,111.5 56.5,112.5 56.5,113.5C 57.5,113.5 58.5,113.5 59.5,113.5 Z"/></g>
<g><path style="opacity:1" fill="#d3d4d2" d="M 144.5,109.5 C 143.941,112.943 142.607,115.943 140.5,118.5C 141.075,115.088 142.408,112.088 144.5,109.5 Z"/></g>
<g><path style="opacity:1" fill="#5b512b" d="M 51.5,112.5 C 51.8417,111.662 52.5084,111.328 53.5,111.5C 53.81,112.738 54.31,112.738 55,111.5C 55.6172,112.449 55.4506,113.282 54.5,114C 55.3805,114.708 56.0472,115.542 56.5,116.5C 56.5569,117.609 56.8902,118.609 57.5,119.5C 56.8333,119.5 56.1667,119.5 55.5,119.5C 55.1667,119.5 54.8333,119.5 54.5,119.5C 54.6107,118.883 54.944,118.383 55.5,118C 54.0229,116.188 52.6896,114.355 51.5,112.5 Z"/></g>
<g><path style="opacity:1" fill="#ae8532" d="M 70.5,113.5 C 70.8333,113.5 71.1667,113.5 71.5,113.5C 72.1667,113.5 72.8333,113.5 73.5,113.5C 75.5,113.5 77.5,113.5 79.5,113.5C 80.1667,113.5 80.8333,113.5 81.5,113.5C 83.5,113.5 85.5,113.5 87.5,113.5C 88.1667,113.5 88.8333,113.5 89.5,113.5C 89.8333,113.5 90.1667,113.5 90.5,113.5C 90.1583,114.338 89.4916,114.672 88.5,114.5C 87.8333,114.5 87.1667,114.5 86.5,114.5C 82.239,115.578 78.239,115.578 74.5,114.5C 73.8333,114.5 73.1667,114.5 72.5,114.5C 71.5084,114.672 70.8417,114.338 70.5,113.5 Z"/></g>
<g><path style="opacity:1" fill="#ae9024" d="M 107.5,110.5 C 107.5,110.833 107.5,111.167 107.5,111.5C 107.19,112.738 106.69,112.738 106,111.5C 105.51,112.793 105.343,114.127 105.5,115.5C 103.801,115.66 102.134,115.494 100.5,115C 101.056,114.617 101.389,114.117 101.5,113.5C 102.5,113.5 103.5,113.5 104.5,113.5C 104.5,112.5 104.5,111.5 104.5,110.5C 105.5,110.5 106.5,110.5 107.5,110.5 Z"/></g>
<g><path style="opacity:1" fill="#959ca8" d="M 131.5,110.5 C 133.315,111.63 135.315,112.296 137.5,112.5C 137.617,114.484 136.95,116.15 135.5,117.5C 133.96,115.563 131.96,114.396 129.5,114C 130.305,112.887 130.972,111.721 131.5,110.5 Z"/></g>
<g><path style="opacity:1" fill="#969ca8" d="M 27.5,110.5 C 29.1207,110.787 30.1207,111.787 30.5,113.5C 28.5781,114.711 26.7448,116.044 25,117.5C 24.5,117 24,116.5 23.5,116C 25.3325,115.252 26.9991,114.252 28.5,113C 27.7476,112.329 27.4142,111.496 27.5,110.5 Z"/></g>
<g><path style="opacity:1" fill="#b69822" d="M 51.5,112.5 C 52.6896,114.355 54.0229,116.188 55.5,118C 54.944,118.383 54.6107,118.883 54.5,119.5C 51.2984,119.463 49.6317,117.797 49.5,114.5C 50.5,114.167 51.1667,113.5 51.5,112.5 Z"/></g>
<g><path style="opacity:1" fill="#674627" d="M 69.5,106.5 C 69.1984,109.059 69.5318,111.393 70.5,113.5C 70.8417,114.338 71.5084,114.672 72.5,114.5C 72.5,114.833 72.5,115.167 72.5,115.5C 68.4609,117.186 64.4609,117.519 60.5,116.5C 60.4431,115.391 60.1098,114.391 59.5,113.5C 61.8226,109.676 65.1559,107.343 69.5,106.5 Z"/></g>
<g><path style="opacity:1" fill="#553d28" d="M 74.5,114.5 C 78.239,115.578 82.239,115.578 86.5,114.5C 86.5,114.833 86.5,115.167 86.5,115.5C 84.5707,117.148 82.5707,118.815 80.5,120.5C 76.8133,120.147 74.8133,118.147 74.5,114.5 Z"/></g>
<g><path style="opacity:1" fill="#6d4b27" d="M 91.5,106.5 C 95.9592,107.302 99.2925,109.636 101.5,113.5C 101.389,114.117 101.056,114.617 100.5,115C 102.134,115.494 103.801,115.66 105.5,115.5C 105.343,114.127 105.51,112.793 106,111.5C 106.69,112.738 107.19,112.738 107.5,111.5C 108.391,112.11 109.391,112.443 110.5,112.5C 111.141,113.482 111.807,114.482 112.5,115.5C 112.376,116.107 112.043,116.44 111.5,116.5C 111.167,116.5 110.833,116.5 110.5,116.5C 108.07,113.832 106.737,114.499 106.5,118.5C 105.395,117.4 104.062,116.733 102.5,116.5C 98.1619,117.672 93.8285,117.505 89.5,116C 88.944,115.617 88.6107,115.117 88.5,114.5C 89.4916,114.672 90.1583,114.338 90.5,113.5C 91.4682,111.393 91.8016,109.059 91.5,106.5 Z"/></g>
<g><path style="opacity:1" fill="#d1ac1f" d="M 110.5,116.5 C 109.548,117.452 108.548,118.452 107.5,119.5C 106.893,119.376 106.56,119.043 106.5,118.5C 106.737,114.499 108.07,113.832 110.5,116.5 Z"/></g>
<g><path style="opacity:1" fill="#d1ab2d" d="M 17.5,116.5 C 18.6737,117.514 19.3404,118.847 19.5,120.5C 17.8958,119.713 17.2291,118.38 17.5,116.5 Z"/></g>
<g><path style="opacity:1" fill="#989fac" d="M 126.5,118.5 C 127.785,119.785 129.119,121.119 130.5,122.5C 131.799,121.91 132.632,120.91 133,119.5C 133.355,123.5 131.855,124.667 128.5,123C 125.985,122.061 125.318,120.561 126.5,118.5 Z"/></g>
<g><path style="opacity:1" fill="#acacac" d="M 72.5,115.5 C 72.5,115.167 72.5,114.833 72.5,114.5C 73.1667,114.5 73.8333,114.5 74.5,114.5C 74.8133,118.147 76.8133,120.147 80.5,120.5C 82.5707,118.815 84.5707,117.148 86.5,115.5C 89.858,117.86 92.5246,120.86 94.5,124.5C 93.7261,125.711 92.8928,125.711 92,124.5C 92.2626,125.951 92.0959,127.284 91.5,128.5C 90.5224,128.023 89.6891,127.357 89,126.5C 89.0354,130.245 88.0354,130.912 86,128.5C 85.7811,129.938 85.2811,131.271 84.5,132.5C 83.8076,131.975 83.3076,131.308 83,130.5C 81.3428,135.817 79.6761,135.817 78,130.5C 77.6924,131.308 77.1924,131.975 76.5,132.5C 75.7189,131.271 75.2189,129.938 75,128.5C 73.3744,131.066 71.8744,130.899 70.5,128C 72.7012,125.426 74.2012,122.593 75,119.5C 73.0879,121.657 71.4213,123.991 70,126.5C 69.6667,125.833 69.3333,125.167 69,124.5C 68.1072,125.711 67.2739,125.711 66.5,124.5C 68.2667,121.23 70.6,118.397 73.5,116C 73.2716,115.601 72.9382,115.435 72.5,115.5 Z"/></g>
<g><path style="opacity:1" fill="#777f90" d="M 32.5,118.5 C 34.7271,119.401 35.7271,121.067 35.5,123.5C 33.549,123.773 32.049,123.107 31,121.5C 29.2723,123.194 29.7723,124.361 32.5,125C 31.2513,126.824 30.0847,126.657 29,124.5C 28.6258,123.584 28.1258,122.75 27.5,122C 29.5844,121.303 31.2511,120.136 32.5,118.5 Z"/></g>
<g><path style="opacity:1" fill="#888888" d="M 102.5,116.5 C 104.062,116.733 105.395,117.4 106.5,118.5C 106.56,119.043 106.893,119.376 107.5,119.5C 108.548,118.452 109.548,117.452 110.5,116.5C 110.833,116.5 111.167,116.5 111.5,116.5C 110.385,119.08 108.385,120.746 105.5,121.5C 105.894,123.424 105.227,125.257 103.5,127C 101.939,127.188 101.272,126.355 101.5,124.5C 98.4904,126.353 96.4904,125.52 95.5,122C 97.5049,119.726 99.8382,117.892 102.5,116.5 Z"/></g>
<g><path style="opacity:1" fill="#e0e0d9" d="M 139.5,120.5 C 139.573,122.027 138.906,123.027 137.5,123.5C 137.427,121.973 138.094,120.973 139.5,120.5 Z"/></g>
<g><path style="opacity:1" fill="#246634" d="M 55.5,119.5 C 56.1667,119.5 56.8333,119.5 57.5,119.5C 59.4421,122.504 60.2754,125.838 60,129.5C 59,128.833 58,128.167 57,127.5C 56.7276,124.746 56.2276,122.079 55.5,119.5 Z"/></g>
<g><path style="opacity:1" fill="#dcdcd6" d="M 137.5,123.5 C 137.573,125.027 136.906,126.027 135.5,126.5C 135.427,124.973 136.094,123.973 137.5,123.5 Z"/></g>
<g><path style="opacity:1" fill="#9097a4" d="M 122.5,123.5 C 124.34,125.168 126.34,126.668 128.5,128C 126.779,129.527 124.779,130.527 122.5,131C 124.929,131.451 125.096,132.285 123,133.5C 122.065,130.898 120.232,129.398 117.5,129C 119.435,127.762 121.435,127.262 123.5,127.5C 122.754,126.264 122.421,124.93 122.5,123.5 Z"/></g>
<g><path style="opacity:1" fill="#a5aab5" d="M 37.5,124.5 C 38.2891,124.783 38.9558,125.283 39.5,126C 34.5136,128.201 34.5136,129.868 39.5,131C 37.1421,132.684 35.1421,132.184 33.5,129.5C 34.8569,127.814 36.1902,126.148 37.5,124.5 Z"/></g>
<g><path style="opacity:1" fill="#89919e" d="M 113.5,131.5 C 116.09,132.128 118.423,133.295 120.5,135C 119.675,136.688 118.675,136.855 117.5,135.5C 116.749,136.376 116.249,137.376 116,138.5C 114.864,136.257 114.03,133.924 113.5,131.5 Z"/></g>
<g><path style="opacity:1" fill="#bcc2ca" d="M 54.5,137.5 C 55.2389,137.369 55.9056,137.536 56.5,138C 53.8521,142.833 53.1854,142.666 54.5,137.5 Z"/></g>
<g><path style="opacity:1" fill="#dfdbce" d="M 125.5,137.5 C 124.415,139.587 122.749,140.92 120.5,141.5C 121.585,139.413 123.251,138.08 125.5,137.5 Z"/></g>
<g><path style="opacity:1" fill="#8e97a5" d="M 46.5,133.5 C 49.7973,133.329 50.1306,133.995 47.5,135.5C 48.7976,140.683 47.4642,141.517 43.5,138C 44,137.5 44.5,137 45,136.5C 45.4226,137.956 46.2559,138.456 47.5,138C 46.6198,136.644 46.2865,135.144 46.5,133.5 Z"/></g>
<g><path style="opacity:1" fill="#a0a8b3" d="M 105.5,136.5 C 107.987,137.79 107.653,138.79 104.5,139.5C 105.397,139.669 106.397,140.002 107.5,140.5C 105.65,141.648 104.983,142.981 105.5,144.5C 104.218,142.821 103.218,140.987 102.5,139C 103.571,138.148 104.571,137.315 105.5,136.5 Z"/></g>
<g><path style="opacity:1" fill="#969daa" d="M 66.5,141.5 C 68.9775,141.051 70.9775,141.717 72.5,143.5C 72.0623,144.506 71.3957,144.506 70.5,143.5C 69.8333,145.167 69.1667,146.833 68.5,148.5C 68.2448,146.657 68.0781,144.657 68,142.5C 65.8215,143.84 65.3215,143.507 66.5,141.5 Z"/></g>
<g><path style="opacity:1" fill="#eae7d9" d="M 120.5,141.5 C 120.027,142.906 119.027,143.573 117.5,143.5C 117.973,142.094 118.973,141.427 120.5,141.5 Z"/></g>
<g><path style="opacity:1" fill="#8c94a1" d="M 60.5,140.5 C 61.6935,140.97 62.3601,141.97 62.5,143.5C 63.9207,148.123 63.254,148.456 60.5,144.5C 59.8333,145.167 59.1667,145.833 58.5,146.5C 58.1667,146.167 57.8333,145.833 57.5,145.5C 58.9524,144.06 59.9524,142.394 60.5,140.5 Z"/></g>
<g><path style="opacity:1" fill="#979fab" d="M 83.5,142.5 C 84.675,142.281 85.675,142.614 86.5,143.5C 85.8333,143.833 85.1667,144.167 84.5,144.5C 88.2097,146.241 88.3764,148.241 85,150.5C 84.0754,149.953 83.2421,149.287 82.5,148.5C 83.3966,148.331 84.3966,147.998 85.5,147.5C 82.8068,146.468 82.1402,144.802 83.5,142.5 Z"/></g>
<g><path style="opacity:1" fill="#98a1ae" d="M 95.5,141.5 C 96.8845,140.199 98.3845,140.199 100,141.5C 101.066,147.56 99.0657,148.894 94,145.5C 93.2274,143.648 93.7274,142.314 95.5,141.5 Z"/></g>
<g><path style="opacity:1" fill="#13223d" d="M 95.5,141.5 C 99.1612,141.35 100.161,142.85 98.5,146C 97.5509,146.617 96.7175,146.451 96,145.5C 95.51,144.207 95.3433,142.873 95.5,141.5 Z"/></g>
<g><path style="opacity:1" fill="#657082" d="M 74.5,142.5 C 76.4672,142.261 78.3005,142.594 80,143.5C 79.7145,145.706 79.5479,147.873 79.5,150C 78.1011,150.595 76.7678,150.428 75.5,149.5C 74.5258,147.257 74.1924,144.924 74.5,142.5 Z"/></g>
<g><path style="opacity:1" fill="#e6e4da" d="M 44.5,144.5 C 51.7598,147.914 59.0931,150.914 66.5,153.5C 58.2917,152.436 50.9584,149.436 44.5,144.5 Z"/></g>
<g><path style="opacity:1" fill="#deddd5" d="M 103.5,150.5 C 93.3557,154.687 82.689,156.187 71.5,155C 69.9419,154.79 68.6085,154.29 67.5,153.5C 79.677,154.161 91.677,153.161 103.5,150.5 Z"/></g>
</svg>
