<?xml version="1.0" encoding="UTF-8"?>
<!DOCTYPE svg PUBLIC "-//W3C//DTD SVG 1.1//EN" "http://www.w3.org/Graphics/SVG/1.1/DTD/svg11.dtd">
<svg xmlns="http://www.w3.org/2000/svg" version="1.1" width="199px" height="53px" style="shape-rendering:geometricPrecision; text-rendering:geometricPrecision; image-rendering:optimizeQuality; fill-rule:evenodd; clip-rule:evenodd" xmlns:xlink="http://www.w3.org/1999/xlink">
<g><path style="opacity:1" fill="#fffbfb" d="M -0.5,-0.5 C 65.8333,-0.5 132.167,-0.5 198.5,-0.5C 198.5,17.1667 198.5,34.8333 198.5,52.5C 132.167,52.5 65.8333,52.5 -0.5,52.5C -0.5,34.8333 -0.5,17.1667 -0.5,-0.5 Z"/></g>
<g><path style="opacity:1" fill="#f46172" d="M 100.5,11.5 C 100.5,9.16667 100.5,6.83333 100.5,4.5C 97.8333,4.5 95.1667,4.5 92.5,4.5C 92.5,6.83333 92.5,9.16667 92.5,11.5C 91.5269,9.0521 91.1936,6.38544 91.5,3.5C 94.8333,3.5 98.1667,3.5 101.5,3.5C 101.806,6.38544 101.473,9.0521 100.5,11.5 Z"/></g>
<g><path style="opacity:1" fill="#ed001d" d="M 100.5,11.5 C 97.8333,11.5 95.1667,11.5 92.5,11.5C 92.5,9.16667 92.5,6.83333 92.5,4.5C 95.1667,4.5 97.8333,4.5 100.5,4.5C 100.5,6.83333 100.5,9.16667 100.5,11.5 Z"/></g>
<g><path style="opacity:1" fill="#ee1325" d="M 48.5,13.5 C 61.8014,12.1482 68.4681,18.1482 68.5,31.5C 61.5,31.5 54.5,31.5 47.5,31.5C 49.613,39.1557 53.613,40.3224 59.5,35C 62.146,34.5026 64.8127,34.3359 67.5,34.5C 66.7649,39.7369 63.7649,42.9035 58.5,44C 43.01,45.1717 36.51,38.005 39,22.5C 41.4057,18.5915 44.5724,15.5915 48.5,13.5 Z"/></g>
<g><path style="opacity:1" fill="#ef1727" d="M 140.5,13.5 C 154.338,12.5095 161.171,18.8429 161,32.5C 156.601,43.4463 148.768,46.9463 137.5,43C 129.512,37.0319 127.679,29.5319 132,20.5C 134.416,17.5766 137.25,15.2433 140.5,13.5 Z"/></g>
<g><path style="opacity:1" fill="#f51e28" d="M 21.5,29.5 C 19.4504,31.5475 17.117,33.2141 14.5,34.5C 12.1597,27.8228 9.82636,21.1562 7.5,14.5C 10.5719,14.1826 13.5719,14.5159 16.5,15.5C 18.5717,20.0501 20.2383,24.7168 21.5,29.5 Z"/></g>
<g><path style="opacity:1" fill="#ee1023" d="M 19.5,43.5 C 20.5578,39.7207 21.8911,36.0541 23.5,32.5C 25.6507,26.8588 27.8173,21.1922 30,15.5C 33.1247,14.2126 36.2913,14.2126 39.5,15.5C 35.902,24.4606 32.402,33.4606 29,42.5C 25.9433,43.4505 22.7766,43.7839 19.5,43.5 Z"/></g>
<g><path style="opacity:1" fill="#ee1024" d="M 70.5,14.5 C 73.5,14.5 76.5,14.5 79.5,14.5C 79.3433,15.8734 79.51,17.2068 80,18.5C 82.1945,15.0375 85.3612,13.7042 89.5,14.5C 89.5,17.1667 89.5,19.8333 89.5,22.5C 84.8187,21.4564 81.652,23.1231 80,27.5C 79.5006,32.8229 79.334,38.1563 79.5,43.5C 76.5,43.5 73.5,43.5 70.5,43.5C 70.5,33.8333 70.5,24.1667 70.5,14.5 Z"/></g>
<g><path style="opacity:1" fill="#f0272f" d="M 91.5,14.5 C 94.8333,14.5 98.1667,14.5 101.5,14.5C 101.5,24.1667 101.5,33.8333 101.5,43.5C 98.1667,43.5 94.8333,43.5 91.5,43.5C 91.5,33.8333 91.5,24.1667 91.5,14.5 Z"/></g>
<g><path style="opacity:1" fill="#ee0b22" d="M 115.5,35.5 C 114.957,35.56 114.624,35.8933 114.5,36.5C 119.12,37.4933 123.786,37.8266 128.5,37.5C 128.5,39.5 128.5,41.5 128.5,43.5C 120.167,43.5 111.833,43.5 103.5,43.5C 103.337,41.1432 103.503,38.8098 104,36.5C 108.133,31.3656 112.633,26.5323 117.5,22C 112.845,21.5008 108.179,21.3342 103.5,21.5C 103.5,19.1667 103.5,16.8333 103.5,14.5C 111.833,14.5 120.167,14.5 128.5,14.5C 128.663,16.8568 128.497,19.1902 128,21.5C 123.968,26.3611 119.801,31.0277 115.5,35.5 Z"/></g>
<g><path style="opacity:1" fill="#ee0d23" d="M 177.5,13.5 C 183.448,12.5282 187.948,14.5282 191,19.5C 191.5,27.4931 191.666,35.4931 191.5,43.5C 188.5,43.5 185.5,43.5 182.5,43.5C 182.666,36.825 182.5,30.1583 182,23.5C 178.528,20.582 175.528,20.9154 173,24.5C 172.5,30.8246 172.334,37.1579 172.5,43.5C 169.5,43.5 166.5,43.5 163.5,43.5C 163.5,33.8333 163.5,24.1667 163.5,14.5C 166.5,14.5 169.5,14.5 172.5,14.5C 172.351,15.552 172.517,16.552 173,17.5C 174.397,15.9297 175.897,14.5964 177.5,13.5 Z"/></g>
<g><path style="opacity:1" fill="#fff5f6" d="M 58.5,23.5 C 57.1286,24.7868 55.2953,25.4535 53,25.5C 50.9674,25.4944 49.134,25.1611 47.5,24.5C 48.2465,21.4448 50.2465,19.7781 53.5,19.5C 55.7615,20.0953 57.4281,21.4286 58.5,23.5 Z"/></g>
<g><path style="opacity:1" fill="#fff9f9" d="M 142.5,20.5 C 145.97,19.8748 148.804,20.8748 151,23.5C 151.667,27.1667 151.667,30.8333 151,34.5C 147.287,38.4875 143.62,38.4875 140,34.5C 137.505,29.1303 138.338,24.4636 142.5,20.5 Z"/></g>
<g><path style="opacity:1" fill="#f34759" d="M 58.5,23.5 C 59.404,24.209 59.7373,25.209 59.5,26.5C 55.1161,26.8256 50.7828,26.4922 46.5,25.5C 46.6236,24.8933 46.9569,24.56 47.5,24.5C 49.134,25.1611 50.9674,25.4944 53,25.5C 55.2953,25.4535 57.1286,24.7868 58.5,23.5 Z"/></g>
<g><path style="opacity:1" fill="#f5a027" d="M 22.5,31.5 C 22.5,32.1667 22.8333,32.5 23.5,32.5C 21.8911,36.0541 20.5578,39.7207 19.5,43.5C 17.7986,42.7886 16.7986,41.4553 16.5,39.5C 16.5515,35.4397 18.5515,32.7731 22.5,31.5 Z"/></g>
<g><path style="opacity:1" fill="#f5672a" d="M 21.5,29.5 C 22.3382,29.8417 22.6716,30.5084 22.5,31.5C 18.5515,32.7731 16.5515,35.4397 16.5,39.5C 16.1075,37.7162 15.4408,36.0495 14.5,34.5C 17.117,33.2141 19.4504,31.5475 21.5,29.5 Z"/></g>
<g><path style="opacity:1" fill="#f24459" d="M 115.5,35.5 C 119.97,36.4861 124.637,36.8195 129.5,36.5C 129.802,39.0593 129.468,41.3926 128.5,43.5C 128.5,41.5 128.5,39.5 128.5,37.5C 123.786,37.8266 119.12,37.4933 114.5,36.5C 114.624,35.8933 114.957,35.56 115.5,35.5 Z"/></g>
</svg>
